<?xml version="1.0" encoding="UTF-8" standalone="no"?><svg xmlns="http://www.w3.org/2000/svg" xmlns:xlink="http://www.w3.org/1999/xlink" data-name="Layer 1" fill="#000000" height="494.9" preserveAspectRatio="xMidYMid meet" version="1" viewBox="0.0 0.0 500.0 494.9" width="500" zoomAndPan="magnify"><g id="change1_1"><path d="M464.25,163.66l.34-27.23-1.23,3.73.45-3.64.22-1.82L458.9,137l4.69-3.46v-5.81l1.51-17.63-1-23V60.58l-8.59,5.58,8.37-7.26-.06-40.68-.67-1,1-4L462.82,6.3l.62-2.18A10.29,10.29,0,0,0,462.52,3H451.31L424.21,0H394.86l-5.62,1.53-4.46,1.39-2.12,3.41,1-3.41L369.89,0H341.57L310,4.06,285.88,2.42l-8.37,5.69,3.35-6L228.28,0,215.89,5.77,203.5,4.06H168L114.76,0l4,8.11-13.4-5.73-40,2.39L37.21,0,28.14,4.77,11.4,2.53.68,10.9l2.12,8-1.57.16.57,1.52L0,24.19l.9,22.1H3L1.51,47.52,0,82.79l.57,47.89L3,125.77l-2,6.58.49,12.73L0,167.4l1.51,19.87,3.41,5-3.46-3.35L0,222.32,2.46,226,0,226.67,4.92,336.29l5,1.34L5,342,0,355.4l5,18.75L0,408.61v28.14l5.26,16.74-2.43,9A9.25,9.25,0,0,0,9.3,465.1h.79l.94-1.31h1.59l1.59.5,2.85.81,5.61-2.1,6.56,2.15h8.59l3-1.23,2.84.55L50,463l8.46,2.15,19.67-.72,5,.72H99.75l3.71-.81,1.09-3V464l14.8,1.18h21.21l3.42-1.64-1.09-2.77,4.35,2.93,8.23,1.48h22.92l1.34-.68,1.84-3.73-.51,2.85,10.13.33,9.63,1.23h8.05l.95-.39v-1.84l.84,1.55,3.39.68h7.25l.16-.22,2.55-.25.55-1.22v1l2.82.68H235l1-.68-.31.68,12.2-.26-.48-1.1,1.2.94h1l3.55.06,4.91.33.7-.68.89-.77-.56,1,.56.33h5.61l.47-.51V465l2,.17h6l1.28-.44-1.09-.9,2.4,1,5.78.3,2-.16.35.16h2.32l.15-.12,1.36-.14h9.62l1.76-.87-1,.81,4.34.28H325.3l.63-.68h8.71s9.94-4.9,9.6-4.56S338.1,464,338.1,464l5.36,1.11h8.8l.46-1.11.13,1.11h103a9.3,9.3,0,0,0,9.3-9.3V247.88l-15.3-4.35,13.39,2.68,1.91-5.28V169.47l-2.8-3.13Z" fill="#fcfdff"/></g><g id="change2_1"><path d="M462.46,493.37l-19.54-64.63c-7.62-25.25-10.33-54.85-10.8-81.6l15.82-24.27a16.13,16.13,0,0,0-15.88,11,557.09,557.09,0,0,1,4.11-63.76l-2.1-.29c-.11.8-9.27,68.5,0,128.73-1.16-4.21-2.3-8.39-3.42-12.51-5.41-20-10.67-39.42-18.36-59.93l5.23-29.42a16.13,16.13,0,0,0-10.28,16.68,372.61,372.61,0,0,0-28.49-54.65L377,259.85a384.27,384.27,0,0,1,20.81,37.59A16.12,16.12,0,0,0,379.27,294l24.42,16.38c11.54,26.72,18.13,51.05,24.95,76.25.1.35.19.7.29,1.05-7.42-12.43-26-36.24-72.51-76.32L355,313c17,14.69,30.32,27.2,40.64,37.74a16.15,16.15,0,0,0-17.38,2.92l27.82,8.16c24,26.52,25.6,37.08,25.61,37.23v.1l4.76,15.73q1.5,5.13,3.12,10.34h0l1.27,4.21v.08h0L460.44,494a1.06,1.06,0,0,0,2.1-.28,1,1,0,0,0-.1-.33Z" fill="#19120c"/></g><g id="change3_1"><path d="M351.4,338.3l1,.43v-.82Zm-.28-50.94,1.32.26v-1.17Zm49.88-26V259.6a9.47,9.47,0,0,0-.17-1.19v-.09c-.09-.39-.2-.77-.32-1.15v-.12h0a10.46,10.46,0,0,0-1.27-2.52h0a10.59,10.59,0,0,0-14.73-2.71h0A10.58,10.58,0,0,0,387.65,238a8.91,8.91,0,0,0-.57-.93,10.65,10.65,0,0,0-6.81-4.41c-.29,0-.59-.07-.89-.1h-2.27a11.8,11.8,0,0,0-1.57.32l-.41.11a.4.4,0,0,0-.29.08h.06a10.51,10.51,0,0,0-2.55,1.28h0a10.59,10.59,0,0,0-2.7,14.73,10.59,10.59,0,0,0-14.73-2.71h0a11.36,11.36,0,0,0-2.11,1.93v-.05c-.06.07-.11.16-.17.23s-.17.23-.25.34a10,10,0,0,0-.87,1.38l-.06.11c-.13.25-.24.51-.35.78a.82.82,0,0,1-.1.26c-.1.27-.2.54-.28.82v.12c-.08.29-.16.58-.22.88a10.61,10.61,0,0,0,1.71,7.93c.21.3.43.59.66.86A10.6,10.6,0,0,0,367,263.88a10.59,10.59,0,0,0-2.71,14.73h0a10.21,10.21,0,0,0,1.91,2.08h0l.1.07c.31.25.62.48.94.7l.1.07a9.9,9.9,0,0,0,1,.57l.43.2c.23.1.47.19.7.27l.48.16.84.21.3.08a10.6,10.6,0,0,0,10.65-16.41,10.58,10.58,0,0,0,19.11-4.13v-.27C400.89,261.91,400.93,261.62,401,261.32Zm-26,54v-.94a7,7,0,0,0-.09-.92v-.07a7.32,7.32,0,0,0-.21-.9v-.09h0a8.11,8.11,0,0,0-12.09-4.6,8.14,8.14,0,0,0,3-10.49,7.43,7.43,0,0,0-.4-.73h0a8.06,8.06,0,0,0-1-1.25l-.08-.08a7.58,7.58,0,0,0-1.09-.95l-.16-.11a8.69,8.69,0,0,0-1.15-.65l-.29-.13a8.5,8.5,0,0,0-1.11-.37l-.2-.07c-.23-.06-.45-.08-.68-.12h-.11c-.21,0-.43-.05-.65-.06h-1a8.21,8.21,0,0,0-1.21.18l-.33.08-.22.05H356a7.79,7.79,0,0,0-2,.89,8.15,8.15,0,0,0-2.62,11.21,8.13,8.13,0,0,0-11.19-2.64h0a8.34,8.34,0,0,0-1.68,1.4h0l-.14.18c-.08.08-.14.17-.21.25a7,7,0,0,0-.71,1,.22.22,0,0,0-.05.08,6.36,6.36,0,0,0-.3.58l-.09.2c-.09.21-.17.41-.24.62V307c-.07.23-.15.45-.2.68a8.16,8.16,0,0,0,1,6.14h0a8.12,8.12,0,0,0,11.19,2.62h0a8.15,8.15,0,0,0-2.62,11.21,8.88,8.88,0,0,0,1.39,1.67h0l.08.06q.33.3.69.57l.07.06q.38.25.78.48l.32.16c.18.09.35.17.53.24l.36.14c.21.08.43.14.64.2a.9.9,0,0,1,.22.06,8.19,8.19,0,0,0,6.15-1h0a7.73,7.73,0,0,0,1.28-1h0a8.67,8.67,0,0,0,1-1.18h0a7.62,7.62,0,0,0,.76-1.33h0a8,8,0,0,0,.48-1.43h0a8.14,8.14,0,0,0-1-6.13h0a8.06,8.06,0,0,0,1,1.25l.05.06a8.5,8.5,0,0,0,1.16,1l.06.05a9.27,9.27,0,0,0,1.3.74h.06a8.9,8.9,0,0,0,1.43.48h0a8.1,8.1,0,0,0,6.15-1h0a10.25,10.25,0,0,0,1.28-1h0a7.6,7.6,0,0,0,1-1.19h0a8.72,8.72,0,0,0,.75-1.33v-.06a8.64,8.64,0,0,0,.47-1.38v-.28c0-.07.08-.45.11-.68Zm81.2-52.72c-.08-.24-.2-.48-.3-.72v-.11c-.1-.23-.22-.44-.34-.66a2.2,2.2,0,0,0-.13-.22c0-.07-.26-.42-.41-.63l-.07-.09a8.42,8.42,0,0,0-.92-1.06l-.27-.26-.18-.18h0a9.24,9.24,0,0,0-14.42,2.92,9.25,9.25,0,0,0-4.3-12.34,9,9,0,0,0-2.37-.76h-.62a8.51,8.51,0,0,0-1.43-.06h-.1a2.62,2.62,0,0,0-.74.07h-.25a6,6,0,0,0-.74.14h-.1a5,5,0,0,0-.76.21,9.18,9.18,0,0,0-5.28,4.71,7.46,7.46,0,0,0-.37.88A9.25,9.25,0,0,0,426.8,266a9.25,9.25,0,0,0-12.35,4.3h0a9.16,9.16,0,0,0-.76,2.34h0v.11a8.28,8.28,0,0,0-.13,1v.11a8.34,8.34,0,0,0,0,1v.41a5.22,5.22,0,0,0,.1.65c0,.22,0,.29.08.43s.13.49.2.73a.35.35,0,0,0,.07.25,9.25,9.25,0,0,0,17,1A9.24,9.24,0,0,0,442.47,291l.22-.09a5.78,5.78,0,0,0,.72-.31l.38-.19.58-.34.34-.22a10,10,0,0,0,.82-.64l.07-.06a10.09,10.09,0,0,0,.72-.74l.08-.08h0a9,9,0,0,0,1.36-2.05A9.23,9.23,0,0,0,443.48,274h0a9.26,9.26,0,0,0,11.9-3.48q.24-.4.45-.84A9.21,9.21,0,0,0,456.2,262.61Z" data-name="Layer 3" fill="#bd33a4"/></g><g data-name="Layer 4"><g data-name="1" id="change4_1"><path d="M500,416.62l-2.36-3.95-4.13-3.55a32.69,32.69,0,0,0-6.59-12.71l-4-5.06-.5-5.74-2,.44L379.76,446.12l.64,1.07,3.77.9L383,451.47l3.87,6.5s5.07,2.64,3.53,5.91l4,6.63,3.44,1.61-1,6.15Z" fill="#394734"/></g></g></svg>