<?xml version="1.0" encoding="UTF-8" standalone="no"?><svg xmlns="http://www.w3.org/2000/svg" xmlns:xlink="http://www.w3.org/1999/xlink" fill="#000000" height="74.3" preserveAspectRatio="xMidYMid meet" version="1" viewBox="0.0 212.8 500.0 74.3" width="500" zoomAndPan="magnify"><g fill="#fefefe" id="change1_1"><path d="M353.93 249.95L348.92 255.5 297.03 255.5 274.21 278.33 362.39 278.33 390.76 249.95z"/><path d="M394.82 250.01L366.49 278.34 386.65 278.37 415.06 250.05z"/><path d="M390.78 278.34L410.93 278.37 439.35 250.05 419.11 250.01z"/><path d="M495.84,212.83c-1.92,0-3.53,1.3-4.01,3.07h-76.12l-19.41,19.41h-34.39l-8.92,8.92h-51.28l-6.76,6.76h-57.77 l-25.88,25.88H28.9v2.08h180.33l-6.14,6.14H0v2.08h203.95l8.22-8.22h57.76l25.88-25.88h51.28l6.76-6.76h34.39l8.92-8.92h59.94 c0.44,1.83,2.08,3.19,4.04,3.19c2.3,0,4.16-1.86,4.16-4.16s-1.86-4.16-4.16-4.16c-1.92,0-3.52,1.29-4.01,3.06h-57.89l17.33-17.33 h75.23c0.44,1.82,2.08,3.17,4.04,3.17c2.3,0,4.16-1.86,4.16-4.16S498.14,212.83,495.84,212.83z M269.07,276.87h-54.82l23.8-23.8 h54.82L269.07,276.87z M346.23,250.99H297.9l4.68-4.68h48.33L346.23,250.99z M387.38,244.23h-31.45l6.84-6.84h31.45L387.38,244.23z"/></g></svg>