<?xml version="1.0" encoding="UTF-8" standalone="no"?><svg xmlns="http://www.w3.org/2000/svg" xmlns:xlink="http://www.w3.org/1999/xlink" fill="#000000" height="392.5" preserveAspectRatio="xMidYMid meet" version="1" viewBox="78.3 26.4 390.9 392.5" width="390.9" zoomAndPan="magnify"><g><g fill="#fefefe" id="change1_1"><path d="M78.304,26.37v7h44.724l32.675,32.674h158.052l15.554-15.554h91.36v28.653l-34.974,34.973v168.226 l76.5,76.499v59.985h7V26.37H78.304z M462.195,170.229l-17.582,17.582v22.07l-17.104,17.104V192.18l-13.676-13.672l32.357-32.357 v-24.31l16.005-16.005V170.229z M427.51,236.884l24.104-24.104v-22.07l10.582-10.582v110.507L427.51,255.95V236.884z M462.195,95.937l-23.005,23.005v24.31l-30.307,30.307l-16.188-16.183v-19.622l53.707-53.707V33.37h15.793V95.937z M326.408,43.489l-15.554,15.554H158.602L132.928,33.37h287.741v10.12H326.408z M427.669,82.042V33.37h11.733v47.778 l-46.707,46.707v-10.839L427.669,82.042z M392.695,279.441V167.274l27.814,27.807v63.771l41.686,41.684v48.408L392.695,279.441z"/><path d="M162.793 40.043H194.097V52.369H162.793z"/><path d="M200.946 40.043H232.25V52.369H200.946z"/><path d="M239.098 40.043H270.402V52.369H239.098z"/><path d="M277.25 40.043H308.554V52.369H277.25z"/></g></g></svg>