<?xml version="1.0" encoding="UTF-8" standalone="no"?><svg xmlns="http://www.w3.org/2000/svg" xmlns:xlink="http://www.w3.org/1999/xlink" fill="#000000" height="394.8" preserveAspectRatio="xMidYMid meet" version="1" viewBox="72.5 36.5 379.2 394.8" width="379.2" zoomAndPan="magnify"><g id="change1_1"><path d="M72.479,36.543v7h27.781l28.682,28.682h43.689l0.022,0.022l0.022-0.022h43.519l0.022,0.022l0.022-0.022 h43.518l0.022,0.022l0.022-0.022h35.33l27.416,27.415v137.113l122.087,122.087v72.507h7V36.543H72.479z M444.631,71.633 l-25.107,25.108v60.844l-20.453-20.453V66.537l22.992-22.993h22.568V71.633z M392.782,297.093l-39.753-39.753v-63.691l20.34-20.341 V80.072l-36.528-36.529h75.323L392.07,63.637v76.395l27.453,27.453v28.672l-26.741,26.741V297.093z M131.842,65.226l-21.683-21.682 h33.789l21.682,21.682H131.842z M175.53,65.226l-21.682-21.682h33.663l21.682,21.682H175.53z M219.092,65.226L197.41,43.543h33.662 l21.682,21.682H219.092z M298.028,65.226h-35.375l-21.682-21.682h85.971l39.427,39.428v87.438l-20.34,20.341v59.59l-16.485-16.485 V96.741L298.028,65.226z M399.782,304.093v-78.296l26.741-26.741V99.641l18.107-18.108v267.41L399.782,304.093z" fill="#fefefe"/></g></svg>