<?xml version="1.0" encoding="UTF-8"?><svg xmlns="http://www.w3.org/2000/svg" xmlns:xlink="http://www.w3.org/1999/xlink" height="1928.8" preserveAspectRatio="xMidYMid meet" version="1.0" viewBox="421.6 261.7 1613.1 1928.8" width="1613.1" zoomAndPan="magnify"><g fill="#040606" fill-rule="evenodd" id="change1_1"><path d="M 1452.449219 331.871094 C 1447.019531 315.796875 1465.1875 307.945312 1475.902344 302.558594 C 1512.582031 284.105469 1562.109375 267.464844 1609.269531 264.453125 C 1652.320312 261.699219 1692.859375 262.277344 1727.976562 267.382812 C 1760.476562 272.113281 1789.09375 287.046875 1818.835938 298.164062 C 1849.050781 309.425781 1874.585938 322.960938 1900.929688 337.71875 C 1943.160156 361.414062 1979.664062 385.847656 2007.917969 424.195312 C 2013.5625 431.855469 2034.730469 463.519531 2019.625 471.089844 C 2005.1875 478.347656 2000.632812 454.3125 1994.71875 444.71875 C 1965.820312 397.824219 1911.871094 367.703125 1859.871094 340.660156 C 1840.824219 330.742188 1820.40625 322.488281 1799.816406 314.277344 C 1779.292969 306.09375 1758.21875 296.578125 1736.78125 292.289062 C 1686.59375 282.25 1625.816406 282.988281 1575.589844 292.289062 C 1540.523438 298.792969 1508.777344 309.613281 1480.296875 325.996094 C 1473.308594 330.015625 1462.351562 342.878906 1452.449219 331.871094" fill="inherit"/><path d="M 1599.03125 368.5 C 1606.789062 367.886719 1628.953125 365.59375 1644.457031 367.042969 C 1664.339844 368.898438 1692.582031 380.332031 1716.269531 386.078125 C 1766.160156 398.230469 1797.363281 405.628906 1827.65625 435.921875 C 1840.753906 449.019531 1845.414062 459.734375 1855.488281 476.957031 C 1860.046875 484.742188 1863.246094 484.996094 1867.230469 498.953125 C 1871.683594 514.777344 1867.574219 518.796875 1859.878906 519.449219 C 1847.628906 520.5 1845.554688 503.636719 1840.828125 494.535156 C 1824.453125 462.976562 1801.511719 437.652344 1764.625 422.734375 C 1748.390625 416.167969 1728.253906 411.941406 1707.460938 406.601562 C 1683.980469 400.574219 1663.828125 391.109375 1638.578125 389.023438 C 1594.125 385.3125 1544.335938 394.746094 1514.019531 409.546875 C 1504.324219 414.273438 1494.453125 429.558594 1484.710938 419.804688 C 1466.710938 401.800781 1516.359375 384.671875 1525.71875 381.6875 C 1553.183594 372.957031 1573.707031 370.472656 1599.03125 368.5" fill="inherit"/><path d="M 1590.210938 453.507812 C 1605.347656 452.128906 1622.203125 449.929688 1638.570312 452.054688 C 1650.238281 453.554688 1663.238281 460.449219 1676.679688 466.714844 C 1709.898438 482.179688 1726.203125 486.273438 1745.566406 519.457031 C 1751.890625 530.328125 1764.042969 559.484375 1745.566406 560.503906 C 1734.089844 561.140625 1732.773438 543.621094 1727.972656 534.125 C 1716.128906 510.5625 1697.921875 500.214844 1669.367188 487.230469 C 1658.3125 482.191406 1643.8125 475.265625 1635.644531 474.023438 C 1604.464844 469.328125 1567.140625 476.640625 1547.703125 487.230469 C 1539.128906 491.910156 1533.109375 497.871094 1527.175781 496.015625 C 1526.953125 495.941406 1519.558594 494.269531 1518.414062 488.691406 C 1515.515625 474.820312 1538.242188 467.253906 1546.242188 463.765625 C 1563.332031 456.332031 1573.503906 455.054688 1590.210938 453.507812" fill="inherit"/><path d="M 1669.367188 583.949219 C 1652.246094 604.011719 1643.84375 568.785156 1631.253906 557.574219 C 1615.773438 543.773438 1602.839844 547.382812 1587.285156 539.976562 C 1581.433594 531.660156 1586.085938 518.539062 1603.410156 520.933594 C 1631.730469 524.851562 1670.183594 557.230469 1669.367188 583.949219" fill="inherit"/><path d="M 1251.671875 998.699219 C 1233.558594 1005.339844 1220.21875 989.390625 1198.921875 985.511719 C 1183.929688 982.78125 1146.539062 985.511719 1143.210938 973.789062 C 1137.75 954.480469 1170.230469 958.851562 1184.25 960.601562 C 1197.179688 962.199219 1215.128906 965.949219 1228.21875 970.851562 C 1242.511719 976.21875 1258.75 983.390625 1251.671875 998.699219" fill="inherit"/><path d="M 1003.988281 1082.230469 C 987.140625 1101.628906 967.929688 1122.320312 955.628906 1143.800781 C 942.847656 1166.089844 926.328125 1194.308594 918.976562 1217.058594 C 914.722656 1230.28125 910.0625 1277.5 916.050781 1290.351562 C 919.386719 1297.5 929.917969 1297.910156 939.496094 1305 C 950.082031 1312.851562 951.851562 1319.640625 960.019531 1322.601562 C 971.65625 1326.800781 988.296875 1327.558594 1003.988281 1329.910156 C 1018.039062 1332.039062 1033.53125 1336 1047.960938 1337.25 C 1086.699219 1340.578125 1133.101562 1336.511719 1163.730469 1332.839844 C 1175.128906 1331.488281 1187.910156 1330.78125 1193.050781 1328.449219 C 1202.359375 1324.230469 1211.101562 1307.710938 1219.441406 1294.738281 C 1228.238281 1281.03125 1238.070312 1270.871094 1244.351562 1259.570312 C 1248.980469 1251.230469 1252.589844 1240.609375 1257.519531 1230.269531 C 1262.320312 1220.210938 1265.988281 1208.660156 1270.71875 1199.488281 C 1284.78125 1172.160156 1308.300781 1140.089844 1295.640625 1099.828125 C 1287.941406 1075.339844 1253.199219 1061.148438 1220.898438 1049.988281 C 1187.28125 1038.378906 1148.648438 1031.101562 1116.828125 1029.480469 C 1109.140625 1029.089844 1102.46875 1030.761719 1100.71875 1030.949219 C 1052.480469 1036.089844 1029.101562 1053.320312 1003.988281 1082.230469 Z M 1096.308594 1008.960938 C 1100.191406 1008.550781 1113.359375 1006.71875 1124.171875 1007.5 C 1160.820312 1010.121094 1204.378906 1019.140625 1239.941406 1032.410156 C 1275.789062 1045.789062 1308.53125 1065.171875 1317.621094 1093.96875 C 1328.441406 1128.238281 1313.601562 1170.269531 1295.640625 1203.878906 C 1286.578125 1220.789062 1279.230469 1237.691406 1270.71875 1256.640625 C 1262.109375 1275.769531 1252.179688 1286.179688 1239.941406 1305 C 1230.230469 1319.988281 1217.058594 1343.269531 1201.839844 1348.96875 C 1193.46875 1352.121094 1179.28125 1354.789062 1166.671875 1356.300781 C 1135.429688 1360.050781 1089.21875 1364.050781 1050.878906 1360.691406 C 1034.71875 1359.28125 1017.328125 1354.550781 999.597656 1351.898438 C 981.050781 1349.121094 961.074219 1347.570312 949.773438 1343.121094 C 942.457031 1340.21875 933.304688 1329.539062 923.382812 1322.601562 C 913.871094 1315.929688 900.257812 1313.339844 895.527344 1303.539062 C 887.804688 1287.441406 892.074219 1227.191406 897.011719 1211.210938 C 901.65625 1196.148438 911.863281 1180.75 920.457031 1164.320312 C 928.675781 1148.578125 935.820312 1133.710938 945.367188 1120.351562 C 955.492188 1106.191406 966.058594 1093.121094 976.148438 1080.769531 C 986.921875 1067.578125 996.976562 1054.121094 1008.378906 1044.128906 C 1028.730469 1026.351562 1059.320312 1012.910156 1096.308594 1008.960938" fill="inherit"/><path d="M 1579.96875 1055.859375 C 1591.371094 1043.128906 1594.191406 1059.460938 1599.019531 1073.449219 C 1617.570312 1127.460938 1629.820312 1230.660156 1619.539062 1310.871094 C 1618.859375 1316.109375 1618.351562 1335.140625 1609.269531 1334.320312 C 1598.789062 1333.371094 1608.621094 1298.929688 1609.269531 1287.421875 C 1613.929688 1205.660156 1603.109375 1114.601562 1579.96875 1055.859375" fill="inherit"/><path d="M 1146.148438 1057.320312 C 1148.140625 1068.910156 1133.820312 1071.410156 1127.109375 1074.921875 C 1077.988281 1100.46875 1035.328125 1141.28125 987.871094 1171.628906 C 981.425781 1175.769531 972.066406 1184.890625 962.945312 1178.96875 C 961.210938 1167.160156 975.160156 1165.511719 982.003906 1161.371094 C 1003.921875 1148.171875 1023.300781 1130.320312 1045.03125 1114.480469 C 1074.808594 1092.800781 1105.839844 1072.261719 1134.429688 1057.320312 C 1137.101562 1055.929688 1141.878906 1051.210938 1146.148438 1057.320312" fill="inherit"/><path d="M 1191.578125 1074.921875 C 1188.371094 1086.71875 1172.371094 1090.710938 1162.269531 1096.898438 C 1131.769531 1115.558594 1103.019531 1138.808594 1072.871094 1159.910156 C 1042.878906 1180.898438 1012.96875 1202.410156 982.003906 1222.941406 C 973.492188 1228.570312 961.480469 1239.078125 949.773438 1234.660156 C 949.792969 1221.320312 966.261719 1218.359375 974.6875 1212.671875 C 1003.269531 1193.359375 1030.96875 1172.039062 1061.160156 1151.109375 C 1101.320312 1123.261719 1141.679688 1093.398438 1179.859375 1073.449219 C 1182.75 1071.941406 1188.46875 1066.769531 1191.578125 1074.921875" fill="inherit"/><path d="M 1537.460938 1088.101562 C 1549.300781 1089.058594 1553.21875 1106.410156 1556.519531 1120.351562 C 1559.679688 1133.859375 1561.691406 1150.789062 1562.371094 1165.78125 C 1563.699219 1194.988281 1565.398438 1229.550781 1562.371094 1252.238281 C 1561.390625 1259.671875 1560.261719 1272.5 1547.699219 1271.289062 C 1541.171875 1262.621094 1549.480469 1253.820312 1550.671875 1244.921875 C 1555.058594 1210.890625 1551.449219 1152.339844 1544.78125 1123.269531 C 1541.75 1110 1530.859375 1099.03125 1537.460938 1088.101562" fill="inherit"/><path d="M 1282.429688 1101.289062 C 1285.21875 1110.679688 1273.988281 1112.210938 1269.261719 1115.941406 C 1254.660156 1127.511719 1239.429688 1141.550781 1223.828125 1154.058594 C 1203.101562 1170.660156 1180.441406 1185.28125 1159.339844 1200.949219 C 1127.28125 1224.761719 1096.179688 1248.078125 1064.089844 1272.761719 C 1055.140625 1279.648438 1044.351562 1293.921875 1030.359375 1288.890625 C 1029.03125 1281.128906 1037.101562 1276.308594 1042.101562 1272.761719 C 1077.148438 1247.738281 1111.660156 1218.628906 1147.621094 1192.148438 C 1167.980469 1177.148438 1190.558594 1163.921875 1210.628906 1148.179688 C 1231.320312 1131.988281 1250.609375 1113.121094 1270.71875 1101.289062 C 1273.480469 1099.671875 1277.96875 1095.199219 1282.429688 1101.289062" fill="inherit"/><path d="M 1182.789062 1114.480469 C 1178.191406 1125.300781 1165.550781 1129.449219 1156.410156 1135 C 1100.789062 1168.710938 1046.488281 1207.429688 990.800781 1243.460938 C 982.972656 1248.53125 972.730469 1261.050781 961.480469 1253.71875 C 962.757812 1241.960938 976.828125 1238.351562 984.945312 1233.191406 C 1010.589844 1216.878906 1035.839844 1198.28125 1062.621094 1180.429688 C 1098.898438 1156.230469 1135.988281 1132.019531 1169.601562 1113.011719 C 1172.460938 1111.398438 1179.660156 1106.160156 1182.789062 1114.480469" fill="inherit"/><path d="M 1193.050781 1146.71875 C 1189.96875 1154.839844 1181.148438 1159.871094 1174.011719 1164.320312 C 1152.191406 1177.839844 1127.691406 1191.371094 1105.109375 1205.339844 C 1099.648438 1205.941406 1096.519531 1204.171875 1096.308594 1199.488281 C 1083.109375 1206.070312 1073.378906 1223.089844 1056.75 1221.46875 C 1056.988281 1219.75 1056.429688 1218.871094 1055.289062 1218.53125 C 1058.671875 1206.851562 1071.398438 1202.960938 1080.199219 1196.558594 C 1105.710938 1178 1131.570312 1155.378906 1165.191406 1143.800781 C 1170.660156 1142.25 1168.089844 1148.730469 1171.078125 1149.648438 C 1177.339844 1147.671875 1187.691406 1136.261719 1193.050781 1146.71875" fill="inherit"/><path d="M 1046.488281 1310.871094 C 1046.289062 1300.078125 1058.101562 1295.011719 1065.550781 1288.890625 C 1101.230469 1259.589844 1141.238281 1228.96875 1181.320312 1200.949219 C 1198.371094 1189.019531 1213.449219 1176.699219 1229.679688 1168.710938 C 1231.621094 1167.75 1239.929688 1158.359375 1241.421875 1171.628906 C 1242 1176.890625 1225.5 1185.589844 1217.980469 1190.691406 C 1167.171875 1225.128906 1119.789062 1260.519531 1072.871094 1299.148438 C 1066.398438 1304.46875 1057.640625 1315.421875 1046.488281 1310.871094" fill="inherit"/><path d="M 1222.371094 1212.671875 C 1224.441406 1222.441406 1213.589844 1226.148438 1207.699219 1230.269531 C 1178.230469 1250.929688 1146.441406 1272.71875 1115.371094 1294.738281 C 1103.359375 1303.269531 1092.371094 1314.898438 1077.269531 1318.199219 C 1072.390625 1301.601562 1094.199219 1296.441406 1105.109375 1288.890625 C 1137.660156 1266.320312 1178.980469 1233.378906 1210.628906 1214.140625 C 1213.308594 1212.5 1216.089844 1208.691406 1222.371094 1212.671875" fill="inherit"/><path d="M 1220.898438 1249.308594 C 1215.96875 1260.269531 1201.371094 1266.71875 1191.578125 1275.699219 C 1184.25 1282.421875 1171.800781 1300.390625 1160.800781 1291.808594 C 1160.910156 1283.988281 1169.140625 1278.800781 1174.011719 1274.238281 C 1185.488281 1263.449219 1196.859375 1253.628906 1212.109375 1244.921875 C 1217.289062 1244.121094 1219.640625 1246.160156 1220.898438 1249.308594" fill="inherit"/><path d="M 790.03125 1387.070312 C 788.5 1390.929688 788.261719 1396.070312 788.550781 1401.738281 C 794.660156 1407.351562 799.527344 1414.210938 806.144531 1419.328125 C 817.378906 1419.328125 828.605469 1419.328125 839.855469 1419.328125 C 845.792969 1414.019531 851.695312 1408.691406 854.503906 1400.269531 C 834.511719 1395.121094 814.566406 1373.96875 790.03125 1387.070312 Z M 779.753906 1432.519531 C 768.046875 1415.191406 759.148438 1388.671875 772.4375 1372.421875 C 778.207031 1365.359375 798.914062 1357.769531 813.480469 1359.230469 C 825.917969 1360.488281 840.703125 1371.921875 853.039062 1376.820312 C 865.445312 1381.738281 876.792969 1381.570312 879.433594 1390.011719 C 885.082031 1408.269531 860.101562 1435.71875 847.171875 1439.828125 C 825.015625 1446.910156 796.410156 1440.089844 779.753906 1432.519531" fill="inherit"/><path d="M 1314.691406 1384.140625 C 1326.53125 1393.019531 1327.421875 1412.730469 1332.289062 1429.570312 C 1343.109375 1467.128906 1359.578125 1505.730469 1370.371094 1546.828125 C 1372.039062 1553.109375 1377.71875 1563.199219 1370.371094 1568.808594 C 1359.171875 1569.53125 1360.5 1556.128906 1358.660156 1549.75 C 1352.160156 1527.289062 1345.660156 1504.578125 1336.679688 1480.878906 C 1331.371094 1466.910156 1325 1452 1320.550781 1436.910156 C 1315.988281 1421.441406 1310.75 1400.171875 1310.300781 1388.550781 C 1309.898438 1386.171875 1311.660156 1386.011719 1311.769531 1384.140625 C 1312.71875 1384.140625 1313.710938 1384.140625 1314.691406 1384.140625" fill="inherit"/><path d="M 1018.648438 1488.191406 C 1022.839844 1478.511719 1028.558594 1468.898438 1025.96875 1458.890625 C 1023.789062 1450.5 1011.230469 1447.710938 1001.058594 1441.300781 C 993.878906 1436.769531 984.027344 1425.511719 976.148438 1422.261719 C 971.417969 1420.300781 964.664062 1421.148438 958.554688 1419.328125 C 950.402344 1416.859375 948.636719 1413.429688 942.441406 1413.460938 C 921.410156 1413.53125 916.730469 1429.269531 910.195312 1444.21875 C 897.808594 1472.550781 888.722656 1494.730469 883.820312 1527.769531 C 908.359375 1542.78125 940.6875 1550.039062 977.613281 1552.679688 C 996.007812 1537.078125 1007.75 1513.421875 1018.648438 1488.191406 Z M 861.835938 1535.101562 C 862.414062 1495.269531 877.132812 1463.660156 891.140625 1432.519531 C 895.699219 1422.359375 900.15625 1410.261719 905.808594 1404.660156 C 912.714844 1397.820312 931.875 1390.371094 942.441406 1390.011719 C 948.175781 1389.820312 965.667969 1393.300781 973.222656 1395.871094 C 984.453125 1399.710938 997.011719 1410.628906 1009.859375 1419.328125 C 1028.078125 1431.628906 1047.238281 1436.96875 1049.421875 1461.820312 C 1050.851562 1478.050781 1036.179688 1510.238281 1028.898438 1523.378906 C 1023.691406 1532.808594 1015.320312 1542.21875 1006.910156 1552.679688 C 1000.070312 1561.191406 991.839844 1573.949219 980.539062 1576.128906 C 969.800781 1578.21875 956.308594 1574.441406 943.90625 1571.738281 C 912.5625 1564.921875 876.503906 1558.109375 861.835938 1535.101562" fill="inherit"/><path d="M 1086.070312 1479.410156 C 1104.070312 1490.710938 1122.710938 1501.398438 1150.558594 1502.859375 C 1153.039062 1497.550781 1154.199219 1490.878906 1153.488281 1482.339844 C 1134.191406 1482.03125 1097.980469 1446.660156 1086.070312 1479.410156 Z M 1064.089844 1491.128906 C 1062.199219 1457.820312 1077.628906 1437.46875 1113.910156 1442.761719 C 1121.75 1443.921875 1132.828125 1452.191406 1141.75 1455.960938 C 1155.308594 1461.679688 1168.269531 1463.371094 1172.53125 1469.148438 C 1183.640625 1484.230469 1174.351562 1517.609375 1160.800781 1523.378906 C 1139.980469 1532.25 1113.480469 1518.648438 1096.308594 1511.640625 C 1083.519531 1506.429688 1070.71875 1499 1064.089844 1491.128906" fill="inherit"/><path d="M 753.378906 1505.789062 C 771.074219 1513.550781 800.820312 1516.878906 822.257812 1516.050781 C 825.253906 1511.230469 823.058594 1501.210938 823.722656 1494.058594 C 811.878906 1489.691406 801.007812 1487.890625 790.03125 1483.800781 C 779.652344 1479.941406 769.683594 1471.691406 756.308594 1472.078125 C 752.734375 1480.71875 753.242188 1493.449219 753.378906 1505.789062 Z M 735.785156 1458.890625 C 741.605469 1452.851562 755.015625 1447.128906 770.976562 1450.089844 C 778.683594 1451.519531 791.75 1461.050781 803.203125 1464.738281 C 816.746094 1469.121094 832.605469 1471.039062 838.390625 1476.46875 C 847.136719 1484.71875 849.789062 1511.160156 844.246094 1524.839844 C 840.773438 1533.398438 831.585938 1535.53125 822.257812 1540.960938 C 795.339844 1533.929688 743.117188 1540.121094 732.859375 1516.050781 C 726.582031 1501.289062 732.945312 1476.46875 735.785156 1458.890625" fill="inherit"/><path d="M 1043.558594 1567.351562 C 1062.210938 1577.539062 1098.371094 1590.628906 1116.828125 1571.738281 C 1098.929688 1561.308594 1075.351562 1556.558594 1064.089844 1539.488281 C 1058.808594 1550.351562 1048.160156 1555.828125 1043.558594 1567.351562 Z M 1059.699219 1518.96875 C 1082.96875 1514.339844 1080.738281 1533.269531 1097.78125 1539.488281 C 1115.589844 1545.988281 1142.460938 1554.621094 1144.691406 1565.871094 C 1148.160156 1583.480469 1117.75 1601.179688 1102.179688 1603.980469 C 1076.609375 1608.589844 1023.519531 1589.210938 1020.121094 1574.671875 C 1017.121094 1561.988281 1027.839844 1549.289062 1033.300781 1542.421875 C 1041.21875 1532.429688 1046.078125 1521.679688 1059.699219 1518.96875" fill="inherit"/><path d="M 751.917969 1809.160156 C 740.753906 1830.730469 726.054688 1848.769531 716.730469 1872.179688 C 749.210938 1876.851562 782.953125 1880.210938 813.480469 1886.828125 C 823.894531 1871.371094 831.535156 1853.109375 838.390625 1834.070312 C 807.933594 1827.378906 783.820312 1814.378906 751.917969 1809.160156 Z M 785.625 1744.671875 C 779.855469 1760.898438 768.488281 1771.5 763.625 1788.640625 C 794.847656 1795.03125 820.558594 1806.949219 850.113281 1815.03125 C 858.367188 1796.410156 868.152344 1779.328125 876.488281 1760.800781 C 845.539062 1756.070312 814.382812 1751.578125 785.625 1744.671875 Z M 823.722656 1680.199219 C 811.949219 1692.328125 802.792969 1707.128906 795.886719 1724.171875 C 825.492188 1730.21875 855.4375 1735.921875 888.214844 1738.820312 C 893.011719 1724.058594 904.582031 1716.101562 908.730469 1700.699219 C 879.191406 1695.078125 854.996094 1684.089844 823.722656 1680.199219 Z M 863.300781 1602.519531 C 862.925781 1629.011719 846.457031 1639.410156 838.390625 1658.210938 C 864.015625 1666.769531 891.378906 1673.589844 918.976562 1680.199219 C 926.039062 1671.691406 928.980469 1659.5 935.105469 1646.488281 C 939.90625 1636.261719 946.746094 1618.96875 955.628906 1618.628906 C 975.382812 1617.898438 963.148438 1640.699219 958.554688 1649.421875 C 951.511719 1662.789062 948.074219 1672.441406 943.90625 1684.589844 C 960.085938 1692.859375 1024.148438 1680.058594 1025.96875 1702.179688 C 1027.5 1720.691406 1002.320312 1711.148438 982.003906 1709.5 C 963.304688 1707.980469 948.515625 1711.230469 933.644531 1706.570312 C 925.222656 1719.148438 916.765625 1731.691406 910.195312 1746.128906 C 924.386719 1754.210938 940.367188 1755.300781 961.480469 1760.800781 C 967.863281 1762.449219 979.179688 1764.300781 989.335938 1766.648438 C 997.316406 1768.488281 1007.679688 1771.691406 1006.910156 1781.320312 C 1005.761719 1796.210938 980.640625 1790.308594 965.890625 1787.171875 C 944.550781 1782.648438 918.089844 1772.398438 899.953125 1766.648438 C 889.265625 1783.339844 881.015625 1802.449219 872.082031 1820.878906 C 884.265625 1826.460938 917.648438 1838.878906 938.035156 1841.398438 C 951.273438 1843.039062 970.601562 1837.128906 968.832031 1854.589844 C 967.675781 1865.75 949.0625 1866.179688 938.035156 1864.851562 C 914.65625 1862.039062 884.367188 1847.941406 861.835938 1842.871094 C 850.199219 1856.648438 847.476562 1879.300781 835.445312 1892.710938 C 853.195312 1899.71875 875.347656 1912.289062 899.953125 1914.671875 C 914.6875 1916.101562 940.894531 1909.988281 940.960938 1927.859375 C 941.046875 1943.578125 916.984375 1937.949219 898.472656 1936.660156 C 870.820312 1934.730469 844.855469 1919.859375 826.648438 1914.671875 C 818.246094 1921.820312 813.226562 1933.699219 807.609375 1945.449219 C 802.710938 1955.710938 801.277344 1973.699219 784.144531 1971.828125 C 784.109375 1970.421875 782.375 1970.710938 781.21875 1970.359375 C 773.695312 1946.578125 794.761719 1927.691406 801.738281 1908.820312 C 774.242188 1899.679688 737.8125 1899.460938 707.949219 1892.710938 C 703.199219 1902.808594 688.210938 1931.351562 683.039062 1948.378906 C 679.652344 1959.488281 681.964844 1978.550781 662.515625 1970.359375 C 651.082031 1943.238281 677.898438 1916.269531 683.039062 1889.761719 C 674.734375 1887.53125 667.042969 1884.808594 655.199219 1883.910156 C 635.769531 1882.410156 609.1875 1889.539062 608.289062 1873.648438 C 607.011719 1850.730469 677.558594 1865.28125 691.816406 1867.78125 C 704.648438 1846.410156 716.421875 1823.980469 729.933594 1803.289062 C 710.773438 1799.140625 688.789062 1787.53125 666.90625 1785.710938 C 657.34375 1784.910156 647.628906 1789.421875 639.070312 1784.25 C 629.929688 1772.578125 644.546875 1763.160156 656.664062 1762.261719 C 682.273438 1760.320312 721.324219 1781.128906 740.191406 1781.320312 C 749.757812 1768.410156 754.757812 1750.929688 765.121094 1738.820312 C 744.292969 1727.421875 720.675781 1718.820312 687.429688 1713.898438 C 678.207031 1712.53125 660.132812 1713.839844 658.125 1703.640625 C 653.871094 1682.078125 682.476562 1690.511719 697.703125 1693.378906 C 724.964844 1698.539062 754.367188 1706.550781 772.4375 1716.828125 C 782.441406 1702.910156 788.976562 1685.5 800.273438 1672.859375 C 774.359375 1666.5 747.355469 1645.769531 718.210938 1642.078125 C 708.832031 1640.890625 682.085938 1645.519531 684.5 1628.890625 C 686.066406 1618 710.738281 1618.910156 721.136719 1620.101562 C 754.296875 1623.871094 781.964844 1646.28125 812.015625 1652.339844 C 827.5 1639.019531 834.953125 1617.628906 845.707031 1599.578125 C 850.386719 1593.078125 860.101562 1598.761719 863.300781 1602.519531" fill="inherit"/><path d="M 492.511719 1875.109375 C 501.308594 1880.789062 495.117188 1892.671875 493.976562 1900.019531 C 488.140625 1937.519531 489.398438 1988.761719 498.382812 2024.589844 C 500.476562 2033.011719 504.578125 2041.980469 507.164062 2049.5 C 509.445312 2056.160156 515.601562 2065.820312 508.625 2071.488281 C 494.945312 2069.019531 492.617188 2047.21875 488.105469 2030.460938 C 477.25 1990.050781 471.71875 1919.03125 486.644531 1876.570312 C 487.714844 1875.199219 489.3125 1874.359375 491.050781 1873.648438 C 492.292969 1873.371094 492.425781 1874.210938 492.511719 1875.109375" fill="inherit"/><path d="M 435.359375 1905.890625 C 447.183594 1909.398438 441.3125 1927.710938 441.210938 1938.121094 C 440.71875 1985.871094 445.394531 2022.859375 455.878906 2061.25 C 457.972656 2068.921875 464.554688 2077.890625 458.804688 2084.679688 C 447.371094 2086.339844 446.484375 2072.78125 444.152344 2064.171875 C 433.28125 2024.320312 421.59375 1962.671875 430.96875 1910.28125 C 430.898438 1907.78125 432.054688 1906.488281 433.894531 1905.890625 C 434.371094 1905.890625 434.863281 1905.890625 435.359375 1905.890625" fill="inherit"/><path d="M 684.5 2027.539062 C 693.484375 2034.890625 694.472656 2048.671875 697.703125 2059.761719 C 704.105469 2081.878906 711.0625 2104.039062 718.210938 2127.179688 C 721.324219 2137.25 729.421875 2149.148438 724.078125 2159.421875 C 711.179688 2158.96875 709.140625 2142.140625 706.484375 2133.050781 C 697.230469 2101.390625 685.707031 2065.171875 677.183594 2031.929688 C 678.546875 2030.851562 679.394531 2029.25 680.109375 2027.539062 C 681.574219 2027.539062 683.039062 2027.539062 684.5 2027.539062" fill="inherit"/><path d="M 879.433594 2031.929688 C 890.117188 2040.230469 892.808594 2058.230469 898.472656 2072.949219 C 903.746094 2086.699219 914.519531 2101.351562 911.660156 2116.921875 C 900.496094 2120 899.597656 2107.148438 897.011719 2100.808594 C 889.300781 2081.871094 878.460938 2058.910156 873.5625 2036.320312 C 876.367188 2035.71875 874.71875 2030.628906 879.433594 2031.929688" fill="inherit"/><path d="M 624.398438 2067.101562 C 629.605469 2058.28125 604.441406 2024.761719 620.007812 2017.28125 C 629.25 2023.792969 631.714844 2038.320312 634.675781 2049.5 C 641.382812 2074.921875 650.09375 2098.191406 656.660156 2121.332031 C 659.65625 2131.929688 659.28125 2148.941406 671.3125 2150.628906 C 657.476562 2122.230469 651.878906 2080.199219 643.457031 2048.042969 C 641.039062 2038.78125 629.265625 2023.671875 641.992188 2017.28125 C 653.054688 2023.402344 652.40625 2038.359375 655.195312 2049.5 C 664.503906 2086.820312 675.039062 2124.019531 684.5 2157.960938 C 689.261719 2156.261719 693.519531 2162.441406 696.222656 2157.960938 C 679.855469 2115.222656 666.226562 2069.722656 653.71875 2023.132812 C 654.789062 2019.320312 659.65625 2019.289062 662.515625 2017.28125 C 643.253906 2014.0625 626.066406 2008.769531 605.359375 2007.019531 C 610.703125 2028.050781 617.59375 2047.511719 624.398438 2067.101562 Z M 618.546875 2103.730469 C 619.667969 2109.261719 616.742188 2110.742188 617.082031 2115.460938 C 627.257812 2123.351562 636.121094 2132.570312 647.847656 2138.902344 C 649.3125 2129.152344 641.484375 2128.660156 634.675781 2127.179688 C 625.488281 2107.269531 618.582031 2086.632812 611.226562 2065.632812 C 603.878906 2044.722656 594.382812 2023.472656 590.710938 1999.683594 C 587.066406 1999.902344 586.164062 1997.382812 583.375 1996.761719 C 594.113281 2033.410156 604.339844 2070.570312 618.546875 2103.730469 Z M 570.1875 1992.351562 C 571.480469 1989.339844 566.375 1985.761719 565.796875 1989.421875 C 568.09375 1989.5625 566.9375 1993.171875 570.1875 1992.351562 Z M 1065.546875 2059.761719 C 1055.367188 2047.820312 1052.476562 2028.050781 1046.488281 2011.410156 C 1043.738281 2003.75 1039.238281 1996.160156 1036.246094 1987.960938 C 1033.585938 1980.800781 1028.148438 1968.832031 1036.246094 1963.050781 C 1047.015625 1966.421875 1046.097656 1979.453125 1049.417969 1987.960938 C 1053.617188 1998.679688 1058.976562 2008.53125 1062.617188 2020.203125 C 1066.195312 2031.710938 1069.015625 2043.789062 1074.324219 2053.910156 C 1087.527344 2035.453125 1102.917969 2019.910156 1116.824219 2002.609375 C 1151.675781 1959.300781 1179.832031 1909.980469 1212.101562 1863.390625 C 1218.589844 1854.011719 1229.21875 1840.910156 1229.671875 1834.070312 C 1230.003906 1829.511719 1224.9375 1816.703125 1222.363281 1807.691406 C 1204.425781 1744.910156 1183.6875 1686.050781 1166.660156 1627.433594 C 1151.695312 1642.632812 1158.777344 1654.09375 1165.183594 1671.402344 C 1168.183594 1679.453125 1170.46875 1687.824219 1172.523438 1694.851562 C 1184.320312 1734.953125 1197.039062 1778.050781 1206.226562 1816.492188 C 1207.761719 1822.890625 1214.15625 1836.261719 1203.308594 1839.941406 C 1193.980469 1837.660156 1196.253906 1825.941406 1194.523438 1819.421875 C 1180.582031 1767.234375 1165.171875 1708.441406 1146.144531 1662.601562 C 1131.015625 1677.191406 1144.886719 1705.574219 1152.015625 1727.09375 C 1166.972656 1772.324219 1176.390625 1812.761719 1190.09375 1854.589844 C 1192.273438 1861.160156 1200.46875 1874.28125 1188.636719 1878.042969 C 1181.402344 1874.941406 1180.605469 1865.230469 1178.398438 1859 C 1169.9375 1835.09375 1163.707031 1812.390625 1156.410156 1788.640625 C 1146.578125 1756.652344 1140.445312 1723.082031 1127.105469 1694.851562 C 1116.1875 1709.992188 1127.824219 1727.703125 1132.964844 1743.210938 C 1144.226562 1777.253906 1152.1875 1812.75 1162.261719 1845.792969 C 1167.296875 1862.320312 1179.082031 1880.042969 1174.003906 1895.632812 C 1164.039062 1897.011719 1162.980469 1885.183594 1160.796875 1879.503906 C 1141.394531 1828.761719 1131.664062 1769.152344 1110.976562 1722.683594 C 1108.835938 1728.84375 1103.355469 1731.691406 1102.175781 1738.824219 C 1121.1875 1790.800781 1140.585938 1854.0625 1154.945312 1908.820312 C 1156.480469 1914.621094 1164.203125 1927.59375 1153.488281 1930.800781 C 1143.796875 1930.09375 1144.835938 1917.550781 1143.207031 1911.75 C 1140.945312 1903.582031 1138.257812 1896.019531 1135.886719 1888.300781 C 1121.625 1841.761719 1111.117188 1791.703125 1091.917969 1752.003906 C 1089.097656 1758.433594 1086.066406 1764.703125 1081.675781 1769.601562 C 1093.925781 1795.902344 1104.007812 1828.792969 1113.90625 1860.441406 C 1121.386719 1884.382812 1128.238281 1909.722656 1134.425781 1932.269531 C 1135.984375 1937.929688 1143.714844 1949.082031 1132.964844 1952.792969 C 1121.695312 1951.152344 1124.726562 1939.171875 1122.707031 1932.269531 C 1108.425781 1883.722656 1091.785156 1829.242188 1074.324219 1782.78125 C 1072.136719 1792.773438 1065.105469 1797.980469 1062.617188 1807.691406 C 1076.777344 1861.820312 1100.328125 1915.621094 1116.824219 1965.972656 C 1118.90625 1972.300781 1124.507812 1982.480469 1118.296875 1989.421875 C 1109.714844 1990.800781 1107.167969 1980.132812 1105.105469 1974.769531 C 1086.207031 1925.121094 1072.867188 1871.210938 1052.355469 1825.273438 C 1047.625 1836.179688 1041.246094 1845.429688 1036.246094 1856.050781 C 1040.828125 1853.820312 1044.308594 1856.460938 1046.488281 1860.441406 C 1052.6875 1883.453125 1064.546875 1908.613281 1071.398438 1930.800781 C 1073.265625 1936.882812 1081.644531 1949.320312 1069.9375 1952.792969 C 1062.828125 1948.773438 1060.847656 1939.671875 1058.207031 1932.269531 C 1049.585938 1908.042969 1040.328125 1883.84375 1033.296875 1859 C 1008.457031 1897.011719 982.679688 1944.8125 951.234375 1979.160156 C 940.546875 1990.832031 919.925781 2009.859375 905.804688 2015.800781 C 867.550781 2031.890625 816.675781 2031.382812 756.304688 2030.460938 C 762.261719 2062.910156 774.644531 2096.179688 782.679688 2127.179688 C 785.007812 2136.128906 794.386719 2151.28125 782.679688 2157.960938 C 772.0625 2152.46875 773.558594 2138.191406 770.972656 2128.660156 C 762.125 2096.128906 747.8125 2065.230469 744.597656 2028.980469 C 719.007812 2025.730469 689.230469 2018.890625 663.976562 2020.203125 C 679.953125 2062.839844 690.011719 2111.410156 707.945312 2152.089844 C 708.726562 2157.449219 701.511719 2158.679688 705.019531 2162.371094 C 716.625 2162 727.394531 2162.460938 737.246094 2163.820312 C 728.023438 2136.152344 717.746094 2091.691406 707.945312 2059.761719 C 704.8125 2049.589844 697.429688 2030.960938 709.410156 2027.542969 C 718.359375 2030.230469 715.023438 2040.300781 716.726562 2046.582031 C 721.351562 2063.441406 728.230469 2080.679688 732.859375 2099.339844 C 737.554688 2118.25 740.648438 2137.871094 747.523438 2155.042969 C 748.683594 2160.113281 745.890625 2161.210938 744.597656 2163.820312 C 750.007812 2162.902344 759.195312 2165.722656 762.175781 2162.371094 C 751.660156 2132.730469 741.707031 2094.769531 732.859375 2064.171875 C 730.101562 2054.660156 721.199219 2036.621094 735.785156 2031.929688 C 742.964844 2036.5 740.003906 2045.933594 741.65625 2052.449219 C 750.417969 2086.890625 764.351562 2121.792969 772.433594 2156.5 C 775.429688 2161.960938 765.558594 2165.089844 772.433594 2165.289062 C 781.214844 2165.289062 790.027344 2165.289062 798.808594 2165.289062 C 788.703125 2135.761719 780.074219 2099 770.972656 2068.5625 C 768.382812 2059.949219 757.699219 2045.589844 769.507812 2039.242188 C 779.207031 2044.691406 780.6875 2058.730469 784.140625 2070.03125 C 791.425781 2093.75 797.71875 2117.28125 804.664062 2140.371094 C 807.691406 2150.390625 807.996094 2170.949219 825.183594 2166.761719 C 816.367188 2134.742188 802.621094 2098.199219 792.957031 2067.101562 C 790.300781 2058.5625 781.300781 2041.742188 794.417969 2036.320312 C 800.683594 2038.140625 800.273438 2046.269531 801.734375 2050.980469 C 812.472656 2085.199219 821.710938 2124.628906 835.445312 2155.042969 C 837.535156 2159.660156 837.671875 2170.351562 847.167969 2166.761719 C 843.253906 2148.128906 838.234375 2127.640625 831.054688 2108.140625 C 824.027344 2089.0625 813.070312 2071.421875 807.605469 2053.910156 C 805.886719 2048.421875 800.75 2036.539062 809.070312 2031.929688 C 820.316406 2033.660156 817.984375 2046.269531 820.792969 2053.910156 C 827.445312 2072.03125 837.332031 2090.582031 844.242188 2111.070312 C 847.40625 2120.441406 851.355469 2130.582031 854.5 2140.371094 C 857.34375 2149.179688 856.542969 2168.140625 869.152344 2166.761719 C 866.871094 2133.800781 853.53125 2097.402344 844.242188 2067.101562 C 841.535156 2058.230469 830.664062 2043.070312 842.777344 2036.320312 C 852.679688 2041.492188 853.140625 2055.019531 855.964844 2064.171875 C 866.003906 2096.589844 878.511719 2128.632812 882.355469 2165.289062 C 910.058594 2159.992188 938.679688 2154.320312 964.421875 2144.769531 C 988.6875 2135.769531 1015.578125 2123.5 1031.835938 2108.140625 C 1037.867188 2102.441406 1044.375 2093.011719 1050.875 2084.679688 C 1057.535156 2076.191406 1068.4375 2062.710938 1068.476562 2058.300781 C 1068.144531 2059.441406 1067.246094 2060 1065.546875 2059.761719 Z M 1175.46875 1611.304688 C 1188.199219 1648.394531 1196.972656 1689.453125 1210.625 1725.613281 C 1202.996094 1682.921875 1190.53125 1645.09375 1179.855469 1605.453125 C 1176.828125 1605.851562 1178.480469 1610.914062 1175.46875 1611.304688 Z M 1207.695312 1558.554688 C 1209.019531 1561.140625 1213.648438 1560.414062 1212.101562 1565.871094 C 1220.816406 1631.28125 1247.640625 1692.550781 1260.476562 1752.003906 C 1261.734375 1757.921875 1270.011719 1773.820312 1254.589844 1773.992188 C 1248.253906 1768.152344 1250.433594 1759.113281 1248.738281 1752.003906 C 1241.652344 1722.601562 1230.179688 1694.222656 1222.363281 1664.0625 C 1218.464844 1649.042969 1214.710938 1633.832031 1210.625 1618.632812 C 1206.332031 1602.625 1202.871094 1586.171875 1197.445312 1573.203125 C 1194.882812 1578.441406 1192.113281 1583.511719 1188.636719 1587.851562 C 1205.109375 1650.042969 1222.640625 1711.171875 1235.546875 1776.910156 C 1234.992188 1781.730469 1229.441406 1781.5625 1228.214844 1785.710938 C 1232.265625 1796.800781 1235.257812 1808.953125 1238.5 1820.882812 C 1256.597656 1802.851562 1266.605469 1776.691406 1281 1754.933594 C 1275.515625 1755.53125 1272.386719 1753.753906 1272.179688 1749.082031 C 1257.546875 1676.273438 1239.101562 1607.273438 1215.023438 1543.882812 C 1213.359375 1549.554688 1208.722656 1552.242188 1207.695312 1558.554688 Z M 1248.738281 1507.253906 C 1261.226562 1558.164062 1281.714844 1632.894531 1294.167969 1687.511719 C 1295.867188 1694.980469 1301.3125 1707.5625 1292.703125 1712.421875 C 1282.394531 1712.59375 1282.429688 1698.234375 1281 1691.902344 C 1266.710938 1630.363281 1254.453125 1565.023438 1235.546875 1510.183594 C 1223.507812 1524.984375 1226.011719 1534.152344 1232.601562 1555.613281 C 1251.359375 1616.613281 1275.148438 1683.632812 1283.929688 1747.613281 C 1292.195312 1741.492188 1294.574219 1731.074219 1300.019531 1721.222656 C 1304.960938 1712.363281 1313.835938 1703.351562 1314.691406 1693.382812 C 1315.199219 1687.242188 1311.078125 1676.691406 1308.839844 1666.992188 C 1295.117188 1607.832031 1271.269531 1530.132812 1251.671875 1486.753906 C 1244.757812 1490.511719 1246.660156 1498.8125 1248.738281 1507.253906 Z M 1260.476562 1467.695312 C 1283.320312 1535.703125 1307.949219 1601.941406 1324.941406 1675.792969 C 1328.195312 1665.851562 1333.402344 1657.890625 1336.679688 1647.953125 C 1334.21875 1645.503906 1330.746094 1644.113281 1330.816406 1639.164062 C 1315.476562 1572.421875 1299.570312 1506.261719 1273.648438 1450.09375 C 1273.578125 1449.195312 1273.449219 1448.363281 1272.179688 1448.632812 C 1267.621094 1454.3125 1265.035156 1462.003906 1260.476562 1467.695312 Z M 1279.5 1431.042969 C 1308.332031 1491.152344 1324.824219 1563.542969 1343.984375 1633.28125 C 1347.792969 1626.34375 1350.289062 1618.09375 1354.269531 1611.304688 C 1348.070312 1612.613281 1345.992188 1609.824219 1343.984375 1606.914062 C 1332.71875 1534.171875 1309.785156 1473.0625 1291.25 1407.59375 C 1286.886719 1414.972656 1284.09375 1423.894531 1279.5 1431.042969 Z M 1294.167969 1403.203125 C 1298.429688 1401.285156 1302.605469 1402.011719 1304.441406 1406.125 C 1321.570312 1471.554688 1345.242188 1530.421875 1355.722656 1602.523438 C 1367.507812 1589.863281 1372.75 1570.671875 1382.109375 1555.613281 C 1373.589844 1546.914062 1373.660156 1532.984375 1370.371094 1518.972656 C 1356.980469 1462.074219 1339.390625 1403.59375 1319.078125 1356.304688 C 1310.777344 1371.914062 1301.996094 1387.101562 1294.167969 1403.203125 Z M 1411.402344 1479.414062 C 1394.089844 1415.652344 1374.617188 1354.023438 1357.191406 1290.351562 C 1350.691406 1292.152344 1351.8125 1301.601562 1346.917969 1305.003906 C 1356.070312 1332.695312 1365.535156 1363.234375 1376.257812 1392.945312 C 1383.4375 1412.863281 1393.167969 1437.253906 1395.300781 1461.824219 C 1395.890625 1468.785156 1399.121094 1483.613281 1387.949219 1485.261719 C 1381.496094 1480.605469 1382.953125 1470.722656 1382.109375 1464.742188 C 1378.394531 1438.785156 1373.015625 1422.074219 1365.972656 1401.742188 C 1356.542969 1374.515625 1348.105469 1347.761719 1338.132812 1322.601562 C 1321.664062 1341.335938 1336.804688 1366.074219 1345.453125 1390.011719 C 1363.089844 1438.761719 1377.675781 1493.472656 1389.425781 1540.964844 C 1398.0625 1519.3125 1414.84375 1497.984375 1420.210938 1477.953125 C 1420.015625 1481.183594 1414 1478.5625 1411.402344 1479.414062 Z M 1364.507812 1271.296875 C 1383.265625 1340.503906 1405.171875 1406.503906 1423.140625 1476.472656 C 1436.820312 1451.785156 1425.9375 1429.402344 1417.257812 1403.203125 C 1401.972656 1357.023438 1389.933594 1302.355469 1368.894531 1266.910156 C 1368.835938 1266.007812 1368.699219 1265.179688 1367.4375 1265.445312 C 1367.230469 1268.167969 1366.480469 1270.324219 1364.507812 1271.296875 Z M 1374.78125 1250.796875 C 1406.128906 1300.542969 1415.894531 1371.84375 1439.242188 1429.574219 C 1442.984375 1412.792969 1436.382812 1395.613281 1431.925781 1379.753906 C 1418.445312 1331.683594 1398.429688 1284.859375 1383.5625 1239.058594 C 1383.460938 1238.167969 1383.367188 1237.316406 1382.109375 1237.59375 C 1379.453125 1241.792969 1378.253906 1247.402344 1374.78125 1250.796875 Z M 1385.042969 1230.273438 C 1390.617188 1229.570312 1394.183594 1230.886719 1395.300781 1234.660156 C 1413.34375 1288.414062 1434.8125 1338.742188 1448.050781 1397.335938 C 1454.144531 1396.601562 1452.171875 1387.785156 1455.378906 1384.144531 C 1447.519531 1371.023438 1445.363281 1355.734375 1440.734375 1341.652344 C 1426.582031 1298.8125 1406.335938 1259.234375 1392.347656 1217.070312 C 1392.277344 1216.179688 1392.140625 1215.339844 1390.882812 1215.605469 C 1389.425781 1220.960938 1387.246094 1225.667969 1385.042969 1230.273438 Z M 1398.234375 1200.957031 C 1400.519531 1203.070312 1403.335938 1204.640625 1404.085938 1208.285156 C 1416.472656 1252.5625 1435.433594 1290.25 1450.984375 1331.394531 C 1438.492188 1281.371094 1421.410156 1235.917969 1399.699219 1195.082031 C 1400 1197.851562 1398.039062 1198.3125 1398.234375 1200.957031 Z M 1489.09375 1202.410156 C 1488.550781 1186.332031 1484.710938 1173.589844 1478.824219 1162.855469 C 1482.839844 1175.449219 1482.492188 1192.414062 1489.09375 1202.410156 Z M 1423.140625 1170.171875 C 1439.820312 1207.488281 1458.75 1251.9375 1468.574219 1291.816406 C 1469.738281 1296.550781 1476.238281 1308.304688 1467.117188 1312.335938 C 1458.980469 1312.511719 1458.460938 1302.382812 1456.835938 1297.679688 C 1441.425781 1253.175781 1429.953125 1207.167969 1408.472656 1171.640625 C 1409.535156 1185.894531 1416.273438 1199.722656 1421.6875 1212.671875 C 1438.355469 1252.644531 1458.945312 1291.714844 1464.1875 1341.652344 C 1461.832031 1346.421875 1452.539062 1338.644531 1453.902344 1344.582031 C 1457.78125 1349.992188 1456.394531 1360.644531 1462.722656 1363.625 C 1465.042969 1338.152344 1477.933594 1315.625 1475.890625 1290.351562 C 1475.003906 1279.339844 1466.945312 1264.472656 1462.722656 1250.796875 C 1450.070312 1209.878906 1436.820312 1155.332031 1418.757812 1129.140625 C 1411.300781 1146.71875 1416.886719 1156.183594 1423.140625 1170.171875 Z M 1420.210938 1121.8125 C 1420.359375 1124.628906 1425.117188 1120.089844 1428.996094 1121.8125 C 1454.527344 1161.757812 1463.207031 1218.535156 1481.742188 1265.445312 C 1483.277344 1262.097656 1482.699219 1256.589844 1484.710938 1253.726562 C 1479.226562 1252.492188 1478.824219 1248.546875 1477.355469 1244.921875 C 1472.9375 1233.933594 1470.386719 1219.308594 1467.117188 1206.820312 C 1456.535156 1166.582031 1445.429688 1122.167969 1424.609375 1095.449219 C 1422.738281 1103.828125 1420.960938 1112.300781 1420.210938 1121.8125 Z M 1448.050781 1107.164062 C 1440.292969 1091.953125 1436.289062 1073 1426.074219 1060.269531 C 1426.074219 1067.585938 1426.074219 1074.925781 1426.074219 1082.234375 C 1439.277344 1083.710938 1441.828125 1103.597656 1448.050781 1107.164062 Z M 1465.652344 1061.734375 C 1465.617188 1055.28125 1471.609375 1047.238281 1468.574219 1042.675781 C 1468.03125 1049.429688 1458.4375 1056.113281 1465.652344 1061.734375 Z M 1450.984375 1030.949219 C 1453.269531 1016.625 1462.144531 1001.078125 1461.21875 988.453125 C 1459.59375 1002.730469 1443.871094 1017.574219 1450.984375 1030.949219 Z M 1456.835938 966.464844 C 1457.273438 965.5625 1460.46875 960.832031 1456.835938 960.613281 C 1458.265625 963.335938 1452.449219 965.492188 1456.835938 966.464844 Z M 1431.925781 994.316406 C 1439.105469 981.847656 1445.0625 960.644531 1446.597656 947.40625 C 1444.609375 947.40625 1442.683594 947.40625 1440.734375 947.40625 C 1441.621094 965.921875 1428.382812 978.027344 1431.925781 994.316406 Z M 1368.894531 943.007812 C 1370.902344 948.355469 1378.933594 947.660156 1383.5625 950.351562 C 1388.675781 957.449219 1397.148438 961.164062 1401.164062 969.382812 C 1410.144531 969.683594 1413.953125 975.15625 1421.6875 976.722656 C 1424.101562 964.488281 1428.382812 954.125 1430.460938 941.554688 C 1412.90625 935.898438 1389.601562 940.03125 1368.894531 943.007812 Z M 1050.875 944.476562 C 1031.886719 953.003906 1011.535156 961.914062 996.667969 970.847656 C 964.335938 990.296875 938.574219 1021.441406 914.585938 1054.394531 C 890.386719 1087.679688 872.179688 1123.519531 855.964844 1161.378906 C 831.140625 1219.367188 795.371094 1269.828125 772.433594 1326.984375 C 764.574219 1346.523438 758.652344 1367.3125 750.449219 1388.554688 C 735.714844 1426.734375 714.871094 1462.484375 696.222656 1499.933594 C 677.417969 1537.691406 664.148438 1579.171875 647.847656 1617.171875 C 632.550781 1652.851562 609.800781 1691.722656 595.097656 1730.023438 C 579.496094 1770.652344 562.292969 1813.484375 555.519531 1857.523438 C 549.839844 1894.582031 554.871094 1942.203125 568.726562 1960.121094 C 572.808594 1965.410156 594.042969 1979.769531 602.414062 1980.632812 C 605.019531 1980.902344 608.40625 1978.511719 611.226562 1979.160156 C 616.0625 1980.269531 619.738281 1984.8125 624.398438 1986.5 C 633.757812 1989.832031 645.738281 1991.359375 656.660156 1993.832031 C 668.589844 1996.5 681.230469 1998.421875 691.816406 1999.683594 C 731.632812 2004.359375 763.960938 2007.929688 797.34375 2008.480469 C 810.445312 2008.679688 824.570312 2009.550781 838.390625 2008.480469 C 891.339844 2004.339844 919.859375 1983.550781 946.84375 1949.863281 C 961.207031 1931.882812 974.070312 1911.582031 984.941406 1894.152344 C 996.886719 1874.972656 1010.347656 1856.433594 1021.578125 1837.003906 C 1033.355469 1816.613281 1043.167969 1794.972656 1053.804688 1775.453125 C 1064.9375 1755.082031 1076.804688 1736.113281 1088.996094 1716.832031 C 1126.328125 1657.683594 1156.574219 1599.132812 1193.046875 1539.492188 C 1216.039062 1501.871094 1240.128906 1462.960938 1260.476562 1419.332031 C 1279.660156 1378.082031 1305.191406 1338.792969 1326.394531 1297.679688 C 1359.035156 1234.5 1391.320312 1177.527344 1402.621094 1092.492188 C 1406.09375 1066.375 1406.53125 1023.492188 1399.699219 1004.566406 C 1396.050781 994.570312 1380.875 975.363281 1370.371094 969.382812 C 1356.519531 961.523438 1333.550781 958.394531 1314.691406 953.269531 C 1259.796875 938.371094 1176.066406 927.140625 1119.777344 929.828125 C 1093.566406 931.074219 1071.855469 935.070312 1050.875 944.476562 Z M 1610.726562 603.007812 C 1594.257812 592.34375 1578.558594 617.355469 1590.207031 630.847656 C 1595.101562 632.9375 1604.367188 632.9375 1609.261719 630.847656 C 1613.683594 623.578125 1615.320312 611.550781 1610.726562 603.007812 Z M 1593.136719 655.78125 C 1573.875 688.238281 1560.761719 721.929688 1544.773438 758.34375 C 1524.761719 803.914062 1502.230469 845.824219 1480.289062 893.191406 C 1474.667969 905.359375 1465.410156 918.585938 1465.652344 928.363281 C 1465.824219 936.003906 1470.175781 936.382812 1475.890625 943.007812 C 1489.269531 958.5 1499.171875 994.488281 1496.414062 1025.085938 C 1494.4375 1046.949219 1483.589844 1067.214844 1484.710938 1088.109375 C 1485.355469 1101.023438 1497.265625 1116.191406 1502.265625 1130.617188 C 1518.191406 1176.429688 1508.9375 1241.863281 1499.34375 1293.285156 C 1494.207031 1320.953125 1489.601562 1346.164062 1483.242188 1369.492188 C 1473.234375 1405.925781 1460.957031 1437.375 1448.050781 1472.082031 C 1436.554688 1503.003906 1417.257812 1532.691406 1402.621094 1562.941406 C 1382.6875 1604.09375 1363.929688 1644.722656 1343.984375 1687.511719 C 1325.402344 1727.402344 1300.667969 1767.472656 1278.03125 1804.773438 C 1255.375 1842.101562 1229.265625 1879.082031 1204.761719 1914.671875 C 1181.261719 1948.820312 1158.859375 1990.222656 1130.035156 2023.132812 C 1108.765625 2047.410156 1087.496094 2071.730469 1067.007812 2097.882812 C 1058.195312 2109.128906 1052.515625 2120.101562 1042.097656 2128.660156 C 1008.40625 2156.28125 934.03125 2183.859375 877.949219 2188.742188 C 857.378906 2190.53125 836.378906 2189.289062 816.402344 2188.742188 C 760.03125 2187.160156 690.421875 2188.28125 652.253906 2169.691406 C 628.246094 2157.980469 596.542969 2129.902344 581.894531 2106.660156 C 564.605469 2079.160156 552.183594 2039.140625 543.8125 2001.140625 C 541.039062 1988.621094 536.171875 1974.980469 535 1963.050781 C 534.285156 1955.703125 537.042969 1947.441406 536.464844 1939.601562 C 535.96875 1932.640625 532.582031 1926.3125 532.074219 1919.082031 C 526.933594 1845.523438 546.4375 1797.960938 568.726562 1738.824219 C 583.902344 1698.503906 602.789062 1660.824219 618.546875 1627.433594 C 636.890625 1588.554688 651.316406 1550.761719 666.902344 1514.582031 C 674.96875 1495.902344 683.972656 1478.902344 693.296875 1460.351562 C 702.144531 1442.761719 708.949219 1423.484375 718.207031 1404.664062 C 736.226562 1367.992188 747.574219 1327.964844 765.117188 1290.351562 C 790.539062 1235.757812 820.671875 1185.777344 845.703125 1129.140625 C 861.785156 1092.757812 881.558594 1058.894531 905.804688 1028.03125 C 928.5 999.09375 955.320312 969.003906 987.871094 950.351562 C 1010.175781 937.574219 1035.425781 926.101562 1061.15625 916.648438 C 1088.976562 906.398438 1120.238281 905.671875 1156.410156 906.386719 C 1221.695312 907.65625 1281.578125 920.003906 1338.132812 937.144531 C 1344.609375 937.722656 1347.160156 931.410156 1351.335938 928.363281 C 1366.25 917.476562 1400.414062 914.140625 1428.996094 918.101562 C 1444.414062 897.84375 1455.207031 874.207031 1465.652344 850.683594 C 1476.132812 827.054688 1489.0625 804.664062 1500.8125 781.808594 C 1524.378906 735.964844 1546.644531 689.992188 1572.617188 646.972656 C 1553.582031 620.632812 1568.792969 581.734375 1596.058594 578.101562 C 1648.367188 571.105469 1651.808594 662.058594 1593.136719 655.78125" fill="inherit"/></g></svg>