<?xml version="1.0" encoding="UTF-8" standalone="no"?><svg xmlns="http://www.w3.org/2000/svg" xmlns:xlink="http://www.w3.org/1999/xlink" fill="#000000" height="243.6" preserveAspectRatio="xMidYMid meet" version="1" viewBox="-0.1 -0.1 269.1 243.6" width="269.1" zoomAndPan="magnify"><g id="change1_1"><path d="M267.547,148.8121c-3.1649-52.1025-1.9681-101.1987-5.6993-148.2494L0.709,3.5668 c0,74.4338,0,153.7382,1.7418,238.7882c65.5756,0.2951,132.6324,0.2951,202.5856,0c25.8919-0.1092,51.3621-5.5131,57.1464-18.7892 C268.5478,208.9571,268.9497,171.9053,267.547,148.8121z M23.0392,23.1697c-0.9902,2.8723-5.3588,3.7411-7.4362,1.5242 s-0.4051-5.9932,2.439-7.0618C20.9885,16.8915,24.0294,20.2974,23.0392,23.1697z M50.7847,24.2731 c-0.3855,0.5354-0.9059,0.9446-1.4666,1.2487c-2.115,1.147-5.0359,0.5842-6.3137-1.5709 c-1.2778-2.1551-0.1943-5.6131,2.1281-6.1005l0.4495-0.2282c1.7078-0.4478,3.6596,0.0228,4.853,1.4188 C51.6285,20.4371,51.8649,22.7728,50.7847,24.2731z M76.2686,24.0127c-2.1652,1.644-5.9067,0.193-6.2814-2.4996 c-0.3748-2.6926,3.0241-5.1058,5.3898-3.7664C77.6909,19.1738,78.4338,22.3687,76.2686,24.0127z M102.8021,21.172 c-0.8093,1.7548-2.8896,2.8791-4.7687,2.4285c-1.8791-0.4506-3.2452-2.5513-2.7419-4.4169s3.1423-3.7189,4.8224-2.7646 C101.9726,17.0896,103.5228,19.6094,102.8021,21.172z M127.4186,22.4222c-0.3855,0.5355-0.9059,0.9446-1.4666,1.2487 c-2.115,1.147-5.0359,0.5843-6.3137-1.5708c-1.2778-2.1551-0.1943-5.6131,2.1281-6.1006l0.4495-0.2281 c1.7078-0.4478,3.6596,0.0227,4.853,1.4188C128.2623,18.5862,128.4988,20.9219,127.4186,22.4222z M267.547,148.8121 c-3.1649-52.1025-1.9681-101.1987-5.6993-148.2494L0.709,3.5668c0,74.4338,0,153.7382,1.7418,238.7882 c65.5756,0.2951,132.6324,0.2951,202.5856,0c25.8919-0.1092,51.3621-5.5131,57.1464-18.7892 C268.5478,208.9571,268.9497,171.9053,267.547,148.8121z M23.0392,23.1697c-0.9902,2.8723-5.3588,3.7411-7.4362,1.5242 s-0.4051-5.9932,2.439-7.0618C20.9885,16.8915,24.0294,20.2974,23.0392,23.1697z M50.7847,24.2731 c-0.3855,0.5354-0.9059,0.9446-1.4666,1.2487c-2.115,1.147-5.0359,0.5842-6.3137-1.5709 c-1.2778-2.1551-0.1943-5.6131,2.1281-6.1005l0.4495-0.2282c1.7078-0.4478,3.6596,0.0228,4.853,1.4188 C51.6285,20.4371,51.8649,22.7728,50.7847,24.2731z M76.2686,24.0127c-2.1652,1.644-5.9067,0.193-6.2814-2.4996 c-0.3748-2.6926,3.0241-5.1058,5.3898-3.7664C77.6909,19.1738,78.4338,22.3687,76.2686,24.0127z M102.8021,21.172 c-0.8093,1.7548-2.8896,2.8791-4.7687,2.4285c-1.8791-0.4506-3.2452-2.5513-2.7419-4.4169s3.1423-3.7189,4.8224-2.7646 C101.9726,17.0896,103.5228,19.6094,102.8021,21.172z M127.4186,22.4222c-0.3855,0.5355-0.9059,0.9446-1.4666,1.2487 c-2.115,1.147-5.0359,0.5843-6.3137-1.5708c-1.2778-2.1551-0.1943-5.6131,2.1281-6.1006l0.4495-0.2281 c1.7078-0.4478,3.6596,0.0227,4.853,1.4188C128.2623,18.5862,128.4988,20.9219,127.4186,22.4222z" fill="#fcfdff"/></g><g id="change2_1"><path d="M262.813,32.6966c0.6448-0.0122,0.6427,0.9878,0,1c-2.0791,0.0394-4.1561,0.1438-6.2348,0.1963 c-4.2248,0.1066-8.4098-0.1793-12.6389,0.061c-4.2017,0.2388-8.4212,0.0574-12.6282,0.0746 c-4.2792,0.0176-8.5797-0.0507-12.8556,0.1253c-2.1055,0.0867-4.1937,0.4227-6.3015,0.4697c-2.1149,0.0472-4.2186-0.2099-6.33-0.277 c-4.1935-0.1332-8.4402,0.257-12.6387,0.3187c-4.1923,0.0616-8.4355,0.3052-12.6236,0.0886 c-2.1043-0.1088-4.1995-0.3102-6.3082-0.1922c-2.1048,0.1179-4.1901,0.4184-6.3006,0.4476 c-4.4314,0.0613-8.8624,0.1269-13.294,0.1709c-2.1413,0.0213-4.2502-0.1627-6.3857-0.2821 c-2.2011-0.1231-4.4188-0.0479-6.6227-0.0478c-4.506,0.0002-9.0085,0.2688-13.5137,0.3686 c-4.4996,0.0996-9.0142,0.2043-13.5145,0.1276c-4.3196-0.0736-8.6153,0.0973-12.9326,0.1935 C93.2,35.729,84.7127,35.7734,76.2207,35.8543c-4.2064,0.0401-8.4125,0.1601-12.6179,0.2567 c-4.2077,0.0967-8.4332-0.0346-12.6362,0.1375c-2.1058,0.0862-4.2013,0.3449-6.3086,0.4023 c-2.1069,0.0573-4.2025-0.1847-6.3067-0.231c-4.2786-0.0941-8.5639,0.3888-12.8516,0.3524 c-4.225-0.0358-8.4013,0.7784-12.6196,0.5704c-2.0921-0.1032-4.1603-0.2346-6.2561-0.1274 c-2.0358,0.1042-4.0664,0.2856-6.1044,0.3503c-0.6448,0.0205-0.6419-0.9796,0-1c2.0379-0.0646,4.0686-0.2461,6.1044-0.3503 c2.0953-0.1072,4.1644,0.0242,6.2561,0.1274c2.126,0.1048,4.201-0.0509,6.3125-0.2844c4.1995-0.4644,8.4042-0.1349,12.6149-0.3602 c2.1789-0.1166,4.3598-0.3262,6.5437-0.2782c2.1043,0.0463,4.1998,0.2883,6.3067,0.231c2.1073-0.0573,4.2028-0.3161,6.3086-0.4023 c2.1051-0.0862,4.2141-0.0194,6.3201-0.0192c8.4118,0.0008,16.8247-0.3948,25.2378-0.4412 c8.4995-0.0469,16.9818-0.1586,25.4768-0.4478c4.4537-0.1516,8.9217,0.0237,13.3789-0.0226 c4.5003-0.0467,9.0186-0.0403,13.5131-0.283c4.4262-0.239,8.9511-0.3843,13.38-0.1367c4.3871,0.2453,8.7233,0.2578,13.1186,0.2102 c2.1055-0.0228,4.2107-0.0697,6.3162-0.0965c2.1938-0.028,4.358-0.3275,6.5455-0.45c2.1088-0.1181,4.2039,0.0833,6.3082,0.1922 c2.1012,0.1087,4.2075,0.0325,6.31-0.0028c4.2074-0.0707,8.4273-0.0199,12.6312-0.2084c2.105-0.0944,4.2127-0.2631,6.3211-0.1961 c2.1114,0.0671,4.2151,0.3242,6.33,0.277c2.1078-0.047,4.196-0.383,6.3015-0.4697c2.0975-0.0864,4.2041-0.057,6.3032-0.0799 c4.2872-0.0466,8.5785-0.1101,12.8653-0.0277c4.218,0.0811,8.42-0.3991,12.6328-0.2786 C254.4592,32.8878,258.6117,32.7762,262.813,32.6966L262.813,32.6966z M263.9102,36.5467 c-4.226,0.1582-8.4312,0.2842-12.6517,0.5667c-4.2263,0.2829-8.4682,0.1353-12.6995,0.3907 c-4.3013,0.2596-8.6386,0.3425-12.9476,0.3151c-4.3255-0.0275-8.6168,0.3571-12.9365,0.396 c-8.5568,0.077-17.0951,0.2638-25.6487,0.5208c-4.3165,0.1297-8.638,0.1628-12.9559,0.2239 c-4.309,0.0611-8.6479-0.1093-12.9457,0.2299c-4.3412,0.3426-8.6035-0.0617-12.946-0.0321 c-2.1122,0.0144-4.2327-0.0272-6.3432,0.0597c-2.1173,0.0872-4.2214,0.3642-6.3428,0.3677 c-2.2016,0.0037-4.3996-0.1621-6.6012-0.165c-2.1148-0.0028-4.2285,0.0908-6.3428,0.1213 c-4.3123,0.0622-8.6208-0.0613-12.9346,0.0284c-4.3195,0.0898-8.6142-0.2691-12.9356-0.1076 c-4.227,0.158-8.4611,0.1763-12.6907,0.2255c-4.3189,0.0503-8.6363,0.0082-12.9547,0.0461 c-2.1184,0.0186-4.2379,0.0031-6.3559,0.0447c-2.2019,0.0432-4.3882,0.3386-6.5887,0.4056c-2.1198,0.0645-4.224-0.199-6.3398-0.2672 c-2.0164-0.065-3.99,0.2004-5.9907,0.4027c-4.2005,0.4248-8.556,0.209-12.7748,0.1468c-4.3255-0.0637-8.6272,0.2604-12.9492,0.3661 c-2.116,0.0517-4.237,0.1532-6.3538,0.1329c-2.2063-0.0212-4.4063-0.1694-6.6134-0.0834c-2.1058,0.0821-4.2059,0.2638-6.3125,0.3302 c-0.6419,0.0202-0.6448,1.0203,0,1c2.1066-0.0664,4.2068-0.2481,6.3125-0.3302c2.2072-0.086,4.407,0.0622,6.6134,0.0834 c4.2267,0.0405,8.4826-0.1522,12.7013-0.3934c4.3016-0.2459,8.6423-0.1371,12.9499-0.1003c2.1466,0.0183,4.2874,0.064,6.4265-0.1521 c2.0008-0.2021,3.9742-0.4677,5.9907-0.4027c2.1158,0.0682,4.22,0.3317,6.3398,0.2672c2.2005-0.067,4.3868-0.3623,6.5887-0.4056 c4.2354-0.0832,8.4733-0.0407,12.7089-0.0265c4.3151,0.0145,8.6345-0.0766,12.9488-0.1529 c4.307-0.0762,8.6346-0.3602,12.9388-0.1425c4.3169,0.2184,8.6155-0.0181,12.9339,0.0317 c4.2318,0.0487,8.4537-0.0738,12.6839-0.0681c2.2016,0.0029,4.3996,0.1688,6.6012,0.165c2.1214-0.0036,4.2255-0.2805,6.3428-0.3677 c4.3109-0.1775,8.6402-0.0823,12.9443,0.1532c4.303,0.2355,8.631-0.3614,12.9439-0.3579c4.2325,0.0034,8.4651-0.0794,12.6968-0.1502 c8.6396-0.1444,17.2751-0.4495,25.914-0.6204c8.5455-0.1691,17.0769-0.412,25.6252-0.5086c4.321-0.0488,8.6257-0.4516,12.946-0.4734 c4.3113-0.0217,8.5782-0.4217,12.8826-0.5483c2.0406-0.06,4.0819-0.0889,6.122-0.1653 C264.5518,37.5227,264.5549,36.5226,263.9102,36.5467L263.9102,36.5467z" fill="#bd33a4"/></g><g id="change3_1"><path d="M0.7656,57.6233c2.1366-0.0054,4.2722,0.0616,6.4087,0.0667c4.3155,0.0101,8.6451-0.2509,12.9602-0.3637 c4.2618-0.1115,8.438,0.5134,12.6965,0.076c4.2794-0.4396,8.6411-0.2365,12.9381-0.1243c4.2374,0.1105,8.4332-0.0989,12.6676-0.1537 c4.3124-0.0558,8.6239-0.1644,12.9361-0.2258c2.1211-0.0302,4.2339,0.1165,6.3535,0.1555c2.1256,0.0391,4.2272-0.1786,6.3444-0.3253 c4.2859-0.297,8.6451-0.0542,12.9417-0.0735c4.3093-0.0195,8.6201-0.2124,12.9249-0.4022c2.1091-0.093,4.2228-0.2473,6.334-0.1452 c2.1204,0.1025,4.2155,0.3152,6.3417,0.234c2.1122-0.0806,4.2192-0.2735,6.3335-0.3028c2.2006-0.0305,4.3994,0.1194,6.5999,0.0833 c2.1226-0.0349,4.2177-0.3828,6.3336-0.5123c2.108-0.129,4.23-0.0632,6.341-0.0775c4.3151-0.0292,8.6237-0.2141,12.938-0.0637 c8.5465,0.2979,17.0876-0.8553,25.6279-0.8538c4.2346,0.0007,8.4775,0.1682,12.7109,0.1002 c2.2017-0.0354,4.389-0.3096,6.5878-0.4011c2.11-0.0878,4.2257-0.058,6.3371-0.082c4.2261-0.048,8.4572-0.1411,12.6783-0.3481 c4.3165-0.2117,8.6323,0.0706,12.9523,0.0775c2.1165,0.0034,4.2384,0.0533,6.3491-0.1286c2.1217-0.1828,4.2145-0.3963,6.346-0.4361 c4.3479-0.0812,8.6894-0.001,13.0354-0.05c0.6448-0.0073,0.6431,0.9927,0,1c-2.1432,0.0242-4.2847-0.0729-6.4276-0.0669 c-8.5696,0.024-17.0799,1.0406-25.6542,0.5928c-4.314-0.2252-8.6261,0.1298-12.9409,0.2281 c-4.2214,0.0961-8.4577,0.0378-12.6755,0.2134c-2.1988,0.0915-4.386,0.3657-6.5878,0.4011 c-2.1184,0.034-4.2357-0.0878-6.3541-0.0701c-4.2482,0.0354-8.4582,0.0148-12.7029,0.2414c-4.3089,0.23-8.6255,0.3395-12.937,0.5138 c-4.3177,0.1745-8.624-0.0349-12.9429,0.0328c-4.2135,0.066-8.4757-0.0804-12.6808,0.1769c-2.116,0.1295-4.211,0.4774-6.3336,0.5123 c-2.2005,0.0362-4.3994-0.1138-6.5999-0.0833c-2.1143,0.0293-4.2213,0.2222-6.3335,0.3028 c-2.1262,0.0812-4.2213-0.1315-6.3417-0.234c-4.2704-0.2064-8.6537,0.1848-12.9214,0.4018 c-4.2131,0.2142-8.4628,0.2298-12.6807,0.1684c-2.2012-0.032-4.4001-0.1013-6.5986,0.0508 c-2.1172,0.1465-4.2188,0.3644-6.3444,0.3253c-8.5464-0.1572-17.0757,0.0013-25.6206,0.2903 c-4.2103,0.1424-8.467-0.0522-12.6782-0.1597c-4.3336-0.1107-8.6187,0.6821-12.942,0.3512 c-4.2352-0.3242-8.4593-0.1862-12.7026-0.0591c-4.3481,0.1302-8.6678,0.1357-13.0173,0.1467 C0.121,58.6249,0.1223,57.6249,0.7656,57.6233z M251.7173,75.0364c-4.2411,0.1725-8.4915,0.202-12.7349,0.302 c-4.3257,0.1019-8.6535,0.3865-12.9808,0.3108c-4.3247-0.0756-8.6512,0.0229-12.9756,0.1013 c-2.1163,0.0383-4.2407,0.0253-6.3547,0.1365c-2.1179,0.1115-4.2245,0.4216-6.3475,0.4373 c-2.1315,0.0157-4.2467-0.3177-6.3772-0.3281c-2.208-0.0109-4.4145,0.2094-6.6197,0.2942 c-4.244,0.1633-8.4793,0.3536-12.7267,0.4152c-4.3272,0.0628-8.6489,0.3347-12.9772,0.2816 c-4.3101-0.0528-8.67-0.1856-12.9744,0.045c-2.1183,0.1135-4.2311,0.2755-6.3539,0.2734c-2.1208-0.0021-4.2414-0.1017-6.362-0.0322 c-2.2059,0.0723-4.4033,0.3091-6.6104,0.3544c-2.1202,0.0434-4.2388-0.0896-6.3589-0.0833 c-4.3247,0.0128-8.6399,0.172-12.9563,0.4127c-4.236,0.2361-8.4689-0.0891-12.7084,0.1723 c-4.3136,0.2659-8.6492,0.3888-12.9704,0.4528c-4.3279,0.0641-8.6542,0.1841-12.9819,0.2516 c-2.1223,0.0331-4.2473,0.1115-6.3699,0.1014c-2.1274-0.01-4.2365-0.3497-6.363-0.3771c-2.1228-0.0273-4.2297,0.2804-6.3459,0.3943 c-2.1974,0.1183-4.4084,0.0499-6.6083,0.0531c-4.2469,0.0063-8.4701,0.307-12.7166,0.0994 c-4.3019-0.2103-8.6796-0.3649-12.9839-0.1881c-4.3122,0.1771-8.6123-0.004-12.9224,0.113 c-2.0388,0.0554-4.0742,0.1871-6.1139,0.2086c-0.6431,0.0067-0.6447,1.0068,0,1c4.2297-0.0444,8.4353-0.2156,12.6685-0.1691 c4.2516,0.0468,8.4794-0.2892,12.733-0.132c4.3117,0.1593,8.6671,0.3815,12.9797,0.2233c4.3161-0.1582,8.6544,0.0238,12.9638-0.2082 c2.1161-0.114,4.2231-0.4216,6.3459-0.3943c2.1265,0.0273,4.2357,0.3671,6.363,0.3771c4.3277,0.0204,8.6616-0.1515,12.9876-0.2535 c4.2426-0.1001,8.4844-0.0944,12.7247-0.2814c4.3104-0.1901,8.6496-0.5158,12.9641-0.4185 c4.3368,0.0977,8.6261-0.2483,12.9579-0.3271c4.2376-0.0771,8.4778,0.0598,12.7114-0.0269 c2.2071-0.0452,4.4045-0.2821,6.6104-0.3544c2.1206-0.0695,4.2412,0.0301,6.362,0.0322c4.329,0.0042,8.6317-0.3813,12.9672-0.3242 c4.236,0.0558,8.4894,0.0694,12.7229-0.0924c4.3242-0.1653,8.6563-0.121,12.9783-0.32c4.3115-0.1985,8.6678-0.5986,12.9836-0.5728 c2.1304,0.0127,4.2457,0.3438,6.3772,0.3281c2.1229-0.0157,4.2296-0.3259,6.3475-0.4373 c8.5562-0.4503,17.1412,0.0449,25.6934-0.3451c4.3254-0.1972,8.6559-0.2369,12.9842-0.3441c4.325-0.107,8.6666-0.4456,12.99-0.4423 c2.1361,0.0016,4.2692,0.1326,6.4056,0.1112c0.6431-0.0064,0.6448-1.0064,0-1c-2.1365,0.0214-4.2696-0.1096-6.4056-0.1112 C256.1281,74.754,253.9249,74.9467,251.7173,75.0364z M252.2399,100.563c-4.2363,0.1967-8.4777-0.0316-12.7181,0.1508 c-4.3105,0.1854-8.6522,0.2008-12.9659,0.1142c-4.3313-0.0869-8.6296,0.2476-12.9559,0.2445 c-8.5693-0.0062-17.1136,0.1334-25.6796,0.3832c-4.3208,0.126-8.6456,0.1655-12.9676,0.2433 c-4.3144,0.0776-8.6623-0.0664-12.9631,0.3092c-4.3416,0.3792-8.6143,0.0192-12.9598,0.1022 c-2.1146,0.0403-4.2387,0.0266-6.3507,0.1431c-2.1184,0.1169-4.2208,0.425-6.3444,0.4611 c-2.2037,0.0375-4.4065-0.0933-6.6104-0.0599c-2.1168,0.0321-4.2308,0.1617-6.3465,0.2288 c-4.3157,0.137-8.6304,0.0911-12.9469,0.2589c-4.3223,0.1681-8.628-0.1131-12.951,0.1252 c-4.2284,0.2332-8.4666,0.3248-12.6996,0.444c-4.3226,0.1218-8.6447,0.1475-12.9672,0.2488 c-2.1201,0.0497-4.2418,0.0642-6.3613,0.1346c-2.2039,0.0732-4.3889,0.3974-6.5912,0.4919 c-2.1216,0.0911-4.2314-0.1478-6.3505-0.1922c-2.0194-0.0424-3.9926,0.2444-5.9936,0.4673 c-4.2001,0.468-8.5645,0.2908-12.7876,0.2613c-4.3306-0.0303-8.6351,0.3223-12.9612,0.451c-2.118,0.063-4.2408,0.1746-6.36,0.1632 c-2.2087-0.0119-4.4117-0.1525-6.6207-0.0596c-2.1077,0.0886-4.2094,0.2758-6.3181,0.3464c-0.6418,0.0215-0.6447,1.0216,0,1 c2.1086-0.0707,4.2104-0.2579,6.3181-0.3464c2.2092-0.0928,4.412,0.0477,6.6207,0.0596c4.2313,0.0228,8.4916-0.1927,12.7129-0.4615 c4.3052-0.2742,8.6505-0.1987,12.9637-0.2004c2.1493-0.0009,4.2929,0.0245,6.4323-0.2136c2.001-0.2227,3.9742-0.5097,5.9936-0.4673 c2.1191,0.0444,4.2289,0.2833,6.3505,0.1922c2.2023-0.0945,4.3873-0.4186,6.5912-0.4919c4.2385-0.1408,8.481-0.1607,12.7209-0.2128 c4.3197-0.053,8.6423-0.2159,12.9596-0.3666c4.3103-0.1505,8.637-0.5121,12.9496-0.3718c4.3253,0.1407,8.624-0.1744,12.9477-0.2018 c4.2362-0.0268,8.4607-0.2231,12.6946-0.2874c2.2039-0.0334,4.4066,0.0974,6.6104,0.0599c2.1236-0.0361,4.226-0.3442,6.3444-0.4611 c4.3134-0.238,8.6496-0.1964,12.9611-0.0049c4.3116,0.1913,8.6367-0.4426,12.9565-0.4653 c4.2376-0.0223,8.4749-0.1215,12.7118-0.1987c8.6498-0.1577,17.2927-0.4351,25.9432-0.5401 c8.557-0.1039,17.101-0.2453,25.6601-0.2092c4.3257,0.0182,8.6423-0.3104,12.967-0.2504c4.3141,0.0599,8.5944-0.2516,12.904-0.2852 c2.0433-0.0159,4.0867-0.0005,6.1299-0.0298c0.6429-0.0092,0.6448-1.0092,0-1C260.6797,100.3306,256.4698,100.3667,252.2399,100.563 z M252.8419,123.4218c-2.1469,0.0401-4.2549,0.2552-6.392,0.4393c-2.126,0.1832-4.2634,0.133-6.3951,0.1296 c-4.3513-0.007-8.6984-0.2914-13.0461-0.0782c-4.2521,0.2086-8.5142,0.3023-12.7713,0.3505 c-2.1268,0.0242-4.2579-0.0059-6.3834,0.0825c-2.2148,0.0921-4.418,0.3683-6.6357,0.4037 c-4.264,0.0683-8.5374-0.1006-12.8026-0.1016c-8.6021-0.002-17.2052,1.1589-25.8136,0.858 c-4.3457-0.1519-8.6857,0.0339-13.0323,0.0629c-2.1263,0.0142-4.2638-0.0522-6.3872,0.0775 c-2.1313,0.1302-4.2416,0.4804-6.3797,0.5154c-2.2165,0.0363-4.4314-0.1149-6.6479-0.0844 c-2.1297,0.0294-4.2521,0.2235-6.3798,0.3046c-2.1418,0.0816-4.2521-0.1327-6.3881-0.236 c-2.1266-0.1029-4.2559,0.0524-6.3803,0.1461c-4.3362,0.1912-8.6784,0.3854-13.019,0.4051 c-4.3278,0.0195-8.7185-0.2249-13.0355,0.0743c-2.1326,0.1479-4.2495,0.3672-6.3904,0.3279 c-2.1349-0.0392-4.263-0.1868-6.3994-0.1563c-4.3435,0.062-8.6863,0.1716-13.0301,0.228 c-4.2653,0.0554-8.4917,0.2665-12.7601,0.1554c-4.3282-0.1127-8.7215-0.3172-13.032,0.1258 c-4.2894,0.4407-8.4959-0.1885-12.7886-0.0762c-4.3463,0.1137-8.7073,0.3767-13.054,0.3665 c-2.1519-0.005-4.3029-0.0725-6.455-0.0671c-0.6434,0.0016-0.6446,1.0016,0,1c4.381-0.011,8.7318-0.0167,13.1114-0.1479 c4.2741-0.1281,8.5288-0.2672,12.7946,0.0593c4.3547,0.3332,8.6709-0.4655,13.0359-0.3542 c4.2419,0.1082,8.5295,0.304,12.7704,0.1603c8.607-0.2916,17.1983-0.4517,25.8068-0.2936c2.1411,0.0392,4.2578-0.1804,6.3904-0.3279 c2.2144-0.1531,4.4292-0.0836,6.6464-0.0513c4.2485,0.0617,8.5291,0.046,12.7726-0.1697c4.2988-0.2186,8.7142-0.6125,13.0157-0.4044 c2.136,0.1033,4.2463,0.3176,6.3881,0.236c2.1276-0.0811,4.2501-0.2753,6.3798-0.3046c2.2166-0.0306,4.4315,0.1207,6.6479,0.0844 c2.1381-0.035,4.2484-0.3852,6.3797-0.5154c4.2358-0.2588,8.529-0.1108,12.7733-0.1769c4.3504-0.0678,8.6879,0.1435,13.037-0.0319 c4.3428-0.1751,8.6907-0.2851,13.0309-0.5165c4.2753-0.228,8.5156-0.2069,12.7945-0.2424c2.1337-0.0177,4.2663,0.105,6.4,0.0708 c2.2177-0.0355,4.4209-0.3116,6.6357-0.4037c4.2488-0.1768,8.5162-0.118,12.7685-0.2147c4.3461-0.0989,8.6897-0.4565,13.035-0.2296 c8.6364,0.451,17.2083-0.5729,25.8399-0.5972c2.1584-0.006,4.3153,0.0917,6.4739,0.0674c0.6431-0.0073,0.6447-1.0073,0-1 C261.5939,123.4208,257.2211,123.3399,252.8419,123.4218z M26.3234,149.9661c4.3591,0.1608,8.7625,0.3849,13.1226,0.2245 c4.3637-0.1605,8.75,0.023,13.1069-0.2123c2.1396-0.1156,4.2699-0.4269,6.4162-0.3997c2.1501,0.0273,4.2827,0.3704,6.4336,0.3801 c4.3752,0.0198,8.7566-0.1547,13.1301-0.2587c4.2892-0.1019,8.5776-0.097,12.8646-0.2869c4.3578-0.193,8.7449-0.5229,13.107-0.4253 c4.3848,0.0982,8.7216-0.2523,13.1014-0.3325c4.2846-0.0784,8.5718,0.0595,12.8524-0.0285 c2.2314-0.0459,4.4531-0.2855,6.6833-0.3587c2.144-0.0704,4.288,0.0302,6.4322,0.0321c4.3769,0.004,8.7272-0.3859,13.1106-0.3282 c4.2828,0.0563,8.583,0.0699,12.8632-0.0938c4.3718-0.1672,8.7515-0.1227,13.121-0.324c4.3588-0.2008,8.7626-0.6055,13.1257-0.5797 c2.1538,0.0127,4.2923,0.3474,6.4471,0.3314c2.1464-0.0159,4.2764-0.3297,6.4177-0.4425c8.6504-0.4559,17.33,0.0443,25.9763-0.3504 c4.3729-0.1996,8.751-0.2399,13.1269-0.3484c4.3724-0.1083,8.7616-0.4506,13.1324-0.4475c2.1594,0.0016,4.3158,0.1341,6.4756,0.1124 c0.6431-0.0064,0.6447-1.0064,0-1c-2.1598,0.0217-4.3162-0.1108-6.4756-0.1124c-2.235-0.0016-4.4623,0.1932-6.6941,0.2841 c-4.2877,0.1745-8.5848,0.2045-12.8749,0.3057c-4.3733,0.1032-8.7485,0.3912-13.1234,0.3149 c-4.3722-0.0762-8.7463,0.0237-13.1182,0.1032c-2.1398,0.0389-4.2877,0.0258-6.425,0.1384 c-2.1413,0.1129-4.2713,0.4266-6.4177,0.4425c-2.1549,0.016-4.2933-0.321-6.4471-0.3314c-2.2322-0.0108-4.4628,0.2119-6.6921,0.2977 c-4.2905,0.1653-8.5723,0.3578-12.8663,0.4203c-4.3749,0.0637-8.7441,0.3386-13.1201,0.2851 c-4.3577-0.0533-8.7659-0.1874-13.1177,0.0459c-2.1418,0.1148-4.278,0.2787-6.4243,0.2767 c-2.1442-0.002-4.2882-0.1025-6.4322-0.0321c-2.2302,0.0732-4.4519,0.3128-6.6833,0.3587 c-2.1437,0.0441-4.2859-0.0902-6.4295-0.0836c-4.3726,0.0133-8.7357,0.1748-13.0999,0.4188 c-4.2829,0.2394-8.5626-0.0888-12.8489,0.1761c-4.361,0.2696-8.7443,0.3945-13.113,0.46 c-4.3755,0.0656-8.7494,0.1877-13.1246,0.2568c-2.1456,0.0339-4.2938,0.1134-6.4396,0.1037 c-2.1509-0.0097-4.2834-0.3528-6.4336-0.3801c-2.1463-0.0273-4.2766,0.2841-6.4162,0.3997c-2.2217,0.12-4.4572,0.0511-6.6813,0.0547 c-4.2937,0.007-8.5634,0.3115-12.8566,0.1021c-4.3493-0.2121-8.7751-0.3681-13.1268-0.1891 c-4.3595,0.1793-8.7067-0.0036-13.0641,0.1147c-2.061,0.056-4.1187,0.1891-6.1807,0.2108c-0.6431,0.0068-0.6447,1.0068,0,1 c4.2761-0.0449,8.5277-0.218,12.8073-0.1711C17.7488,150.1474,22.023,149.8075,26.3234,149.9661z M268.2524,167.7766 c-4.4024,0.0496-8.801-0.0337-13.2053,0.0441c-2.1594,0.0381-4.2801,0.2518-6.4299,0.4337 c-2.1389,0.1809-4.2886,0.1265-6.4328,0.1186c-4.3768-0.0162-8.7482-0.314-13.1222-0.1138 c-4.2776,0.1958-8.5651,0.2734-12.8472,0.3028c-2.1395,0.0146-4.283-0.0259-6.4214,0.0521c-2.2283,0.0814-4.446,0.3471-6.677,0.3701 c-4.289,0.0441-8.5867-0.1532-12.8764-0.1839c-8.6522-0.0619-17.3148,1.0356-25.9711,0.6564 c-4.3698-0.1915-8.7371-0.0446-13.1093-0.0564c-2.1389-0.0058-4.2883-0.0929-6.4254,0.0174 c-2.145,0.1107-4.2711,0.4427-6.422,0.4575c-2.2298,0.0154-4.4562-0.1578-6.686-0.1481c-2.1425,0.0095-4.2793,0.1848-6.4202,0.2466 c-2.1552,0.0623-4.276-0.1726-6.4236-0.2958c-2.1383-0.1227-4.2814,0.0148-6.4193,0.0906 c-4.3633,0.1547-8.7325,0.3143-13.0989,0.3004c-4.3528-0.0139-8.7683-0.2916-13.1123-0.0196 c-2.1461,0.1345-4.2768,0.3415-6.4301,0.2888c-2.1472-0.0526-4.2868-0.2136-6.4359-0.1948 c-4.3694,0.0381-8.7385,0.1266-13.1081,0.1641c-4.2905,0.0369-8.5433,0.2328-12.8362,0.1068 c-4.3531-0.1279-8.7722-0.3458-13.1089,0.0898c-4.3154,0.4335-8.5457-0.207-12.8637-0.0997 c-4.3722,0.1086-8.7585,0.3694-13.131,0.3574c-2.1644-0.006-4.3281-0.0743-6.4927-0.0688c-0.6434,0.0016-0.6446,1.0016,0,1 c4.4063-0.011,8.7833-0.015,13.1884-0.1431c4.2993-0.1251,8.5792-0.2593,12.8696,0.0766c4.3798,0.343,8.7228-0.4505,13.1134-0.3262 c4.2669,0.1208,8.5786,0.3321,12.8453,0.204c8.6592-0.2599,17.3014-0.3779,25.9599-0.1661 c2.1533,0.0527,4.2839-0.1547,6.4301-0.2888c2.2284-0.1392,4.4557-0.0538,6.6857-0.0052c4.2731,0.0929,8.5786,0.1104,12.8489-0.0717 c4.3256-0.1844,8.7711-0.5425,13.0959-0.2944c2.1476,0.1232,4.2685,0.358,6.4236,0.2958c2.1409-0.0618,4.2777-0.2372,6.4202-0.2466 c2.2298-0.0098,4.4562,0.1635,6.686,0.1481c2.1509-0.0148,4.277-0.3469,6.422-0.4575c4.2631-0.22,8.58-0.0305,12.8499-0.0579 c4.3765-0.0281,8.7375,0.2232,13.1136,0.0838c4.3696-0.1392,8.7439-0.2147,13.1112-0.4149 c4.3016-0.1971,8.567-0.1463,12.8706-0.1547c2.1463-0.0042,4.2905,0.1322,6.437,0.1102c2.231-0.0229,4.4487-0.2887,6.677-0.3701 c4.2748-0.156,8.5665-0.0775,12.8444-0.1583c4.372-0.0825,8.7419-0.428,13.1119-0.1881c8.6859,0.4768,17.3094-0.5402,25.9911-0.5604 c2.1709-0.0051,4.3402,0.0938,6.5113,0.0693C268.8955,168.7693,268.8972,167.7693,268.2524,167.7766z M267.3702,190.0644 c-2.1538,0.0215-4.3041-0.1114-6.4575-0.1146c-2.2288-0.0033-4.4501,0.1884-6.6758,0.2755 c-4.276,0.1672-8.5616,0.1868-12.8399,0.2738c-4.3614,0.0886-8.7262,0.3576-13.0884,0.2592 c-4.3597-0.0983-8.7222-0.0251-13.0826,0.0236c-2.1341,0.0238-4.2758-0.0054-6.4081,0.09 c-2.1362,0.0955-4.2629,0.3904-6.4036,0.3872c-2.1491-0.0032-4.2784-0.3594-6.4261-0.3909 c-2.2259-0.0328-4.4524,0.1663-6.6765,0.228c-4.2805,0.1186-8.5523,0.2607-12.8352,0.2698 c-4.3633,0.0092-8.7239,0.2258-13.0867,0.1124c-4.3448-0.1129-8.738-0.3096-13.0811-0.1401 c-2.1373,0.0834-4.2698,0.2155-6.4099,0.182c-2.138-0.0335-4.2745-0.1654-6.4134-0.1268c-2.2249,0.0402-4.4438,0.2465-6.6695,0.2596 c-2.1382,0.0126-4.2723-0.1523-6.4099-0.1765c-4.3604-0.0494-8.7133,0.0507-13.0684,0.2355 c-4.2742,0.1813-8.537-0.2007-12.8149,0.0118c-4.3521,0.2162-8.7241,0.2914-13.0815,0.3112 c-4.364,0.0198-8.7265,0.0996-13.0902,0.1306c-2.1399,0.0152-4.2827,0.0768-6.4225,0.0504 c-2.1448-0.0265-4.2689-0.3843-6.4129-0.4265c-2.1402-0.0421-4.2666,0.2546-6.4009,0.3569 c-2.2163,0.1061-4.445,0.0248-6.6631,0.0169c-4.2817-0.0154-8.5412,0.2697-12.8217,0.0454 c-4.3362-0.2271-8.7504-0.395-13.0903-0.2253c-4.3476,0.1699-8.6837-0.0181-13.0289,0.0972 c-2.0555,0.0546-4.1076,0.1869-6.1641,0.2084c-0.6431,0.0067-0.6448,1.0068,0,1c4.2649-0.0447,8.5042-0.2149,12.7726-0.1625 c4.2867,0.0526,8.5495-0.2777,12.8381-0.1076c4.3471,0.1724,8.7367,0.4117,13.0858,0.2708 c4.3529-0.141,8.7249,0.0649,13.0715-0.1433c2.1343-0.1022,4.2607-0.3989,6.4009-0.3569c2.144,0.0421,4.2681,0.4,6.4129,0.4265 c4.3629,0.0539,8.7332-0.082,13.0956-0.1438c4.2781-0.0606,8.5546-0.0109,12.8315-0.1519 c4.3475-0.1434,8.7269-0.4196,13.0752-0.2665c4.3708,0.1539,8.7006-0.1373,13.0688-0.1563 c4.2737-0.0186,8.5463,0.1808,12.8162,0.1555c2.2257-0.0132,4.4446-0.2195,6.6695-0.2596c2.1389-0.0386,4.2754,0.0933,6.4134,0.1268 c4.3641,0.0684,8.708-0.257,13.0779-0.1373c4.2697,0.1169,8.5578,0.1898,12.8279,0.0826c4.3615-0.1094,8.7287-0.0103,13.0882-0.1603 c4.3494-0.1497,8.7441-0.5057,13.0953-0.4371c2.1476,0.0338,4.277,0.3877,6.4261,0.3909c2.1406,0.0032,4.2673-0.2917,6.4036-0.3872 c8.6289-0.3857,17.2823,0.1652,25.9064-0.1921c4.3616-0.1807,8.7277-0.2067,13.0917-0.3043 c4.3611-0.0975,8.7375-0.4321,13.0966-0.4256c2.1534,0.0032,4.3036,0.1361,6.4575,0.1146 C268.0132,191.058,268.0149,190.0579,267.3702,190.0644z M237.8788,214.6876c-3.7906,0.0558-7.5718,0.0213-11.3596,0.2092 c-3.7869,0.1879-7.567-0.0059-11.3544,0.087c-3.8719,0.095-7.7272,0.1685-11.6009,0.1567 c-3.7943-0.0115-7.5897-0.1818-11.3825-0.0377c-7.7233,0.2934-15.4598-0.0548-23.1888,0.059 c-7.6459,0.1125-15.2913,0.0966-22.9377,0.0707c-3.8638-0.0131-7.7306-0.1907-11.5904,0.0342 c-3.8128,0.2222-7.5433-0.178-11.3493-0.1978c-3.8708-0.0201-7.7086-0.004-11.5737,0.2046 c-3.7811,0.204-7.5674-0.1535-11.3522-0.0912c-3.8692,0.0638-7.7292,0.0244-11.5982,0.0223 c-3.8571-0.002-7.6987,0.1909-11.5554,0.0308c-3.8002-0.1578-7.587,0.0907-11.3864,0.1592 c-3.8573,0.0696-7.7144,0.1622-11.5717,0.2388c-3.7852,0.0751-7.5714,0.0678-11.3571,0.1243 c-1.9354,0.0289-3.8775,0.0177-5.8107,0.1214c-1.9361,0.1038-3.8635,0.3409-5.8025,0.3976 c-1.9294,0.0563-3.8524-0.1259-5.7798-0.1754c-1.9437-0.0499-3.8488,0.1541-5.7781,0.3618 c-3.7737,0.4063-7.599,0.2558-11.3899,0.325c-1.9626,0.0358-3.9256,0.0447-5.888,0.0971c-0.6422,0.0172-0.6448,1.0173,0,1 c3.9001-0.1042,7.8054-0.1534,11.7067-0.1661c3.7977-0.0124,7.5589-0.715,11.3493-0.6177c1.9274,0.0495,3.8503,0.2317,5.7798,0.1754 c1.939-0.0567,3.8664-0.2938,5.8025-0.3976c3.7809-0.2028,7.5992-0.1829,11.3853-0.1887c7.72-0.0118,15.4501-0.1987,23.1647-0.4756 c3.7899-0.136,7.569,0.1687,11.3596,0.0897c3.8585-0.0804,7.7051-0.0492,11.5637-0.0385c3.8706,0.0107,7.7278-0.1525,11.5983-0.0065 c3.7968,0.1432,7.5506-0.2261,11.3425-0.2141c3.8751,0.0123,7.71,0.1084,11.5783,0.3135c3.7792,0.2003,7.5666-0.2457,11.3522-0.1896 c15.3823,0.228,30.7633-0.092,46.1454,0.0681c3.7883,0.0394,7.5646-0.2665,11.3544-0.166c3.8718,0.1027,7.7578,0.1409,11.631,0.0862 c3.8602-0.0544,7.7012-0.2031,11.5634-0.1525c3.7702,0.0494,7.5267-0.2658,11.2958-0.2866 c1.8782-0.0104,3.7563-0.0034,5.6343-0.0311C238.5217,215.6782,238.5236,214.6781,237.8788,214.6876z M235.768,236.6243 c-3.8342,0.0486-7.6664-0.0388-11.502,0.0258c-3.7794,0.0635-7.5418,0.4945-11.3165,0.5159 c-3.659,0.0208-7.3163,0.0154-10.971-0.1605c-3.7106-0.1786-7.4234,0.1018-11.1351,0.1379 c-3.725,0.0361-7.448,0.0656-11.1732,0.0474c-3.7188-0.0182-7.4296,0.333-11.1462,0.2503 c-3.7196-0.0828-7.4388-0.1937-11.1581-0.2942c-3.8262-0.1035-7.6712,0.0623-11.498,0.126 c-3.9421,0.0657-7.8871,0.1147-11.8299,0.0919c-3.9435-0.0229-7.8891-0.3173-11.8353-0.3823 c-3.9319-0.0646-7.903-0.3239-11.8328-0.1945c-1.9824,0.0653-3.9576,0.2754-5.9429,0.2595c-1.968-0.0157-3.932-0.1737-5.8983-0.2404 c-3.7376-0.1269-7.4754,0.2347-11.2081-0.0653c-3.6681-0.2948-7.2728-0.2626-10.9492-0.2413 c-3.7114,0.0214-7.4196,0.1316-11.1313,0.0801c-3.7271-0.0516-7.4543-0.164-11.1811-0.2044 c-3.7173-0.0403-7.3967,0.3507-11.1193,0.176c-3.8798-0.182-7.7526-0.094-11.635-0.0832c-3.8647,0.0108-7.727,0.0319-11.5897,0.1563 c-3.9324,0.1266-7.8569-0.1219-11.7894-0.0706c-1.9276,0.0252-3.8549,0.0664-5.7826,0.0796c-0.6432,0.0043-0.6447,1.0044,0,1 c3.8853-0.0266,7.76-0.1301,11.645-0.0098c3.9496,0.1222,7.8904-0.1025,11.8397-0.1232c3.8754-0.0203,7.7506-0.0513,11.6259-0.0782 c3.7557-0.026,7.5044,0.3439,11.2582,0.1575c7.4348-0.3693,14.8646,0.1658,22.3049-0.0055 c3.7042-0.0853,7.4152-0.1464,11.1205-0.1484c3.6642-0.0019,7.2819,0.4997,10.9554,0.4131 c3.8586-0.0909,7.6807,0.1769,11.5344,0.2078c1.9854,0.0159,3.9604-0.1942,5.9429-0.2595c1.9719-0.0649,3.95,0.0374,5.9213,0.0911 c7.8882,0.2148,15.7791,0.4548,23.668,0.4581c3.939,0.0016,7.8864-0.0319,11.8236-0.15c3.7365-0.1121,7.4543,0.0705,11.1896,0.0959 c3.7188,0.0253,7.394,0.215,11.1138,0.0193c3.727-0.1961,7.4584-0.0743,11.1887-0.1033c3.7095-0.0287,7.4167-0.066,11.1241-0.1942 c3.7352-0.1292,7.4479,0.1578,11.1815,0.1475c3.6623-0.0101,7.2703-0.022,10.9232-0.3135c3.8366-0.3062,7.754-0.2905,11.6018-0.2614 c1.8878,0.0143,3.7745,0.0706,5.6625,0.0466C236.411,237.6161,236.4127,236.6161,235.768,236.6243z" fill="#fcfdff"/></g><g id="change4_1"><path d="M268.7101,168.3674c0.0197-4.0061,0.0295-8.0343-0.1329-12.0377c-0.1631-4.0188-0.6094-8.0397-0.8873-12.053 c-0.2787-4.0252-0.45-8.0705-0.539-12.1041c-0.0855-3.8758-0.4175-7.7241-0.5659-11.5944 c-0.1554-4.0511-0.1777-8.0635-0.4866-12.1092c-0.3062-4.0085-0.0257-8.0961-0.0273-12.1171 c-0.0016-4.0459-0.3113-8.0646-0.3903-12.1064c-0.0789-4.0402-0.0586-8.0756-0.0847-12.1155 c-0.025-3.8726-0.5467-7.7222-0.5999-11.6023c-0.1106-8.0729-0.0336-16.1518-0.3642-24.2192 c-0.0714-1.7415-0.3423-3.4384-0.5812-5.162c-0.3231-2.3312-0.21-4.5921-0.1118-6.9326c0.1706-4.0663-0.8898-8.0157-0.8297-12.0801 c0.0275-1.8554,0.1021-3.7018-0.0994-5.5516c-0.1926-1.7676-0.5298-3.5143-0.7341-5.28c0.0816-0.001,0.1631-0.0022,0.2448-0.0031 c0.643-0.0074,0.6447-1.0074,0-1c-0.1475,0.0017-0.2951,0.0039-0.4426,0.0057c-0.2155-0.2715-0.6722-0.27-0.8292,0.0106 c-1.6841,0.0213-3.3682,0.0444-5.0522,0.0646c-2.0014,0.024-3.9242-0.1709-5.9109-0.3172c-2.2144-0.163-4.4056,0.0181-6.6058,0.2422 c-2.1919,0.2231-4.4071,0.1707-6.6078,0.2046c-8.5651,0.132-17.1348-0.0089-25.7006,0.0801 c-4.1389,0.043-8.2475,0.1368-12.3801,0.3379c-2.1705,0.1056-4.3159,0.0065-6.4816-0.0986 c-2.2363-0.1085-4.4825-0.0228-6.7213-0.0465c-4.3579-0.0462-8.8577-0.1417-13.2022,0.2283 c-4.2804,0.3646-8.5092,0.1285-12.7935,0.2418c-1.9451,0.0514-3.8788,0.2682-5.8249,0.3062 c-2.1371,0.0417-4.274-0.0015-6.4113,0.0095c-2.1571,0.011-4.2496-0.1514-6.3955-0.2864c-2.1835-0.1373-4.3568,0.0197-6.5317,0.195 c-4.3899,0.354-8.8209-0.0464-13.2213,0.0786c-2.1758,0.0618-4.3611,0.0381-6.5334,0.1713 c-2.1364,0.131-4.2437,0.3248-6.3898,0.2966c-2.1426-0.0281-4.269-0.215-6.4149-0.1763c-1.947,0.0352-3.8839,0.2329-5.83,0.2812 c-4.2729,0.1063-8.5266-0.0564-12.7995,0.1716c-4.3934,0.2344-8.8151,0.0933-13.2135,0.181 c-4.4032,0.0878-8.8038,0.0345-13.2072,0.0533c-8.3306,0.0357-16.6376-0.3536-24.9563,0.1866 c-4.3908,0.2851-8.886,0.3116-13.2833,0.2156c-2.1625-0.0472-4.3243-0.004-6.487,0.0084C10.0656,2.9575,7.7597,3.1656,5.559,2.7819 c-1.8202-0.3173-3.2126-0.3716-5.004,0.2442C0.1299,3.1722,0.1374,3.6862,0.3879,3.91C0.3483,5.6942,0.1603,7.4675,0.0718,9.2496 c-0.1025,2.0662,0.0074,4.1352,0.0671,6.201c0.1097,3.7932-0.1489,7.5776-0.1386,11.3708 c0.0107,3.9623,0.0258,7.9246,0.0328,11.8868c0.0069,3.8942,0.456,7.728,0.1909,11.6254 c-0.2642,3.8842-0.0626,7.7424-0.0548,11.6301c0.0078,3.8759,0.0009,7.7499-0.0543,11.6255 c-0.0552,3.8752,0.1647,7.7491,0.0671,11.6234c-0.0477,1.8944-0.1503,3.7896-0.1159,5.6851 c0.036,1.9828,0.2387,3.9582,0.2885,5.9405c0.0972,3.8715-0.0253,7.7517,0.023,11.625c0.0483,3.8768,0.1396,7.7545,0.1591,11.6314 c0.0195,3.877,0.0276,7.7531,0.0137,11.6301c-0.0142,3.958,0.2886,7.9363,0.0443,11.8889 c-0.4797,7.7601,0.7828,15.4995,0.1599,23.2578c-0.3023,3.7657-0.1533,7.5976-0.0841,11.3732 c0.0728,3.9684,0.242,7.9232,0.4172,11.8871c0.1903,4.3066,0.3749,8.6083,0.4279,12.9194 c0.0531,4.3167-0.3635,8.6172-0.1675,12.9291c0.1948,4.2843,0.6115,8.6362,0.5363,12.9228c-0.0395,2.2478-0.2891,4.48-0.2292,6.7308 c0.0596,2.2396,0.2468,4.4734,0.3033,6.7133c0.0069,0.2724,0.2236,0.4971,0.5,0.5c4.135,0.0438,8.2476,0.2409,12.3864,0.1967 c4.1312-0.0441,8.2659-0.0407,12.3972,0.0002c8.2664,0.0818,16.5327-0.0853,24.7997-0.0406 c4.0536,0.022,8.0876-0.1974,12.1423-0.0385c4.0416,0.1584,8.1004,0.1417,12.145,0.1084 c8.2699-0.0682,16.5339-0.2084,24.8047-0.1528c4.1234,0.0278,8.2841,0.5852,12.3957,0.2345 c4.0742-0.3475,8.0604-0.1942,12.1431-0.1481c1.9841,0.0224,3.9599,0.2163,5.9428,0.2699c2.0674,0.0558,4.1353-0.0588,6.2017-0.1126 c4.1283-0.1075,8.2866-0.551,12.4072-0.1719c2.0805,0.1914,4.115,0.3535,6.2036,0.1746c2.0748-0.1779,4.1118-0.4359,6.1992-0.4167 c4.1393,0.038,8.2708,0.2311,12.4074,0.3181c4.1518,0.0872,8.2532-0.3011,12.41-0.0386c3.9621,0.2501,7.9325-0.0103,11.899-0.0088 c8.0188,0.003,16.1324-0.2744,24.0938-1.3038c7.8474-1.0146,15.3987-2.4214,22.8209-5.233 c6.4304-2.4359,12.8794-5.3551,16.0428-11.8792c1.4841-3.0608,2.1504-6.549,2.8557-9.8553 c0.7857-3.6836,1.4423-7.4344,2.0628-11.149c0.632-3.7839,0.8901-7.7286,0.9897-11.5599c0.1005-3.8685,0.2939-7.7072,0.4893-11.5711 C268.9015,176.4452,268.6904,172.3961,268.7101,168.3674z M264.3776,213.588c-0.6795,3.3716-1.3199,6.9837-2.7592,10.1282 c-1.6478,3.5997-4.2833,6.142-7.6279,8.1896c-3.2065,1.9631-6.7446,3.1799-10.261,4.4671c-2.719,0.9953-5.5132,1.7704-8.3395,2.4011 c0.713-0.9611,1.0972-2.3764,1.3951-3.2927c0.8165-2.5119,1.3559-5.0942,1.623-7.7216c0.5462-5.3729,0.1334-10.8054-0.7205-16.1243 c-0.4564-2.8428-1.1367-5.6456-1.894-8.4224c4.34-0.1535,8.6777-0.3488,13.019-0.476c4.273-0.1252,8.699-0.0957,12.8323-1.3292 c1.8539-0.5533,3.5791-1.4174,5.0925-2.6135C266.2242,203.7587,265.3659,208.6841,264.3776,213.588z M267.2339,190.537 c-0.027,2.3613-0.1696,4.7103-0.3839,7.0513c-0.1108,0.0004-0.2248,0.0308-0.3289,0.1212 c-3.0383,2.6396-7.118,3.4255-11.0166,3.7394c-4.2947,0.3458-8.6219,0.319-12.9261,0.4809 c-2.4772,0.0932-4.9528,0.2227-7.4304,0.3077c-0.3221,0.011-0.5714,0.3109-0.4821,0.6329 c1.3556,4.8924,2.3351,9.8275,2.7725,14.8896c0.4273,4.9454,0.3257,10.0422-0.8773,14.8782 c-0.329,1.3224-0.7328,2.6259-1.1982,3.9065c-0.314,0.8639-0.8135,2.3492-1.9579,2.2568c-0.3287-0.0266-0.4854,0.223-0.4769,0.4797 c-0.259,0.0501-0.5165,0.1084-0.7759,0.1564c-3.861,0.7142-7.7833,1.2253-11.6881,1.6334 c-3.9677,0.4146-7.9607,0.4796-11.9369,0.7813c-3.9174,0.2973-7.8461,0.127-11.7709,0.1802 c-2.0692,0.028-4.1383,0.1242-6.2078,0.1187c-2.0732-0.0056-4.1344-0.2372-6.2053-0.2972c-3.9702-0.1151-7.9194,0.2997-11.8959,0.11 c-4.0775-0.1945-8.3296-0.4421-12.4042-0.1543c-1.8953,0.1339-3.7756,0.4565-5.6796,0.4625 c-2.0782,0.0066-4.134-0.3466-6.2069-0.4371c-2.072-0.0906-4.1375,0.124-6.2044,0.2316c-2.0645,0.1074-4.1367,0.0975-6.2032,0.1617 c-3.9678,0.1232-7.9206-0.1498-11.8862-0.2437c-2.0646-0.0489-4.1335-0.2054-6.1994-0.1505 c-2.0727,0.0551-4.126,0.3987-6.1989,0.4487c-1.8995,0.0457-3.7894-0.1693-5.6827-0.2808 c-2.0615-0.1213-4.1328-0.0782-6.1974-0.0932c-4.1315-0.03-8.2708-0.0624-12.4017,0.016 c-8.0936,0.1537-16.1989,0.2797-24.2903-0.0106c-3.9621-0.1422-7.9213,0.1124-11.8846,0.0819 c-4.1343-0.0318-8.2647,0.0184-12.3986,0.0245c-8.0919,0.012-16.1893-0.0723-24.2809,0.0292 c-3.8049,0.0477-7.5853-0.141-11.3849-0.1938c-0.1068-3.8209-0.317-7.5714-0.1199-11.4015 c0.1946-3.7813-0.1875-7.5925-0.3309-11.3724c-0.0719-1.8942-0.2144-3.7878-0.2324-5.6839c-0.0197-2.0759,0.2405-4.1367,0.2903-6.21 c0.0927-3.8596-0.005-7.7788-0.2363-11.6317c-0.4647-7.7425-0.6501-15.5013-0.6904-23.2574 c-0.0202-3.8868,0.4614-7.7471,0.3126-11.6306c-0.1486-3.8757-0.4267-7.7499-0.5536-11.6239 c-0.0595-1.8165,0.0988-3.6204,0.2119-5.4312c0.1292-2.0688,0.0715-4.1332,0.023-6.2036c-0.0909-3.877-0.0331-7.7516-0.0546-11.629 c-0.0434-7.8391-0.2625-15.6799-0.216-23.519c0.0226-3.802-0.212-7.5684-0.2809-11.3644c-0.072-3.9612,0.16-7.9191,0.0759-11.8843 C0.9778,71.2664,1.189,63.5114,1.056,55.7611c-0.0356-2.0774,0.0919-4.1309,0.22-6.2024c0.1396-2.2566,0.0413-4.4655-0.1085-6.7182 C0.8821,38.5487,1.028,34.2209,1.012,29.9213c-0.016-4.3062,0.2279-8.616,0.1639-12.9185 c-0.0333-2.2385-0.1873-4.4786-0.1425-6.7179C1.0767,8.122,1.3493,5.9725,1.3903,3.8093c0.8134-0.2466,1.6332-0.4086,2.4984-0.3152 C4.8411,3.597,5.766,3.8591,6.7246,3.9368c2.0266,0.1643,4.1134,0.0184,6.1481,0.0042c4.3954-0.0306,8.7911,0.0841,13.1851-0.0571 c4.3712-0.1404,8.747-0.487,13.1188-0.4908c4.1586-0.0036,8.3192,0.1911,12.4739,0.1575 c8.5288-0.0689,17.0604-0.1231,25.5893-0.1454c4.3955-0.0115,8.7814-0.3557,13.1754-0.3035 c4.2279,0.0501,8.425-0.251,12.6461-0.2659c2.0233-0.0071,4.037,0.1903,6.0599,0.1905c2.0995,0.0002,4.1652-0.2296,6.2574-0.3273 c4.3237-0.202,8.7088-0.2919,13.0333-0.1324c4.4051,0.1625,8.8145-0.6118,13.2065-0.2522 c4.2463,0.3477,8.5374,0.3459,12.7999,0.2343c2.0278-0.0532,4.0432-0.2786,6.0725-0.3099c2.057-0.0316,4.1083,0.0745,6.1645,0.0812 c2.1497,0.007,4.2493-0.1956,6.3874-0.3447c2.1689-0.1512,4.3558-0.1111,6.5295-0.1482c4.3808-0.0746,8.843-0.2245,13.2188,0.0164 c4.3307,0.2385,8.591-0.187,12.9166-0.2227c8.3387-0.0689,16.6984-0.1989,25.0355-0.0644 c4.3392,0.0701,8.8896,0.1864,13.2058-0.2805c2.1059-0.2278,4.2186-0.3693,6.3369-0.2134c2.1258,0.1565,4.1803,0.3384,6.3215,0.3122 c1.5567-0.019,3.1134-0.0403,4.6702-0.0599c0.2047,1.7614,0.541,3.5037,0.7327,5.2672c0.2194,2.0188,0.1058,4.0327,0.0926,6.0578 c-0.0255,3.8926,1,7.6745,0.8364,11.5739c-0.0852,2.0306-0.2349,4.0343-0.0017,6.0619c0.2318,2.0162,0.6114,3.9999,0.6947,6.0327 c0.162,3.9556,0.2196,7.8996,0.21,11.8575c-0.0096,3.9515,0.0914,7.9059,0.1474,11.8571c0.0262,1.8494,0.01,3.7061,0.1455,5.5516 c0.1545,2.1049,0.438,4.1894,0.4589,6.3033c0.0389,3.9546,0.0057,7.9065,0.0776,11.8619c0.0734,4.0411,0.4012,8.0627,0.4001,12.1069 c-0.0011,3.8534-0.2604,7.7707-0.0425,11.6158c0.1049,1.8503,0.34,3.6909,0.4279,5.5424c0.1037,2.1852,0.049,4.3751,0.0988,6.5617 c0.088,3.8707,0.5002,7.7216,0.5753,11.5958c0.0781,4.034,0.2305,8.0814,0.491,12.1078c0.2482,3.8356,0.613,7.6621,0.8705,11.4962 c0.2694,4.0107,0.2291,8.072,0.2234,12.0903c-0.0054,3.8644,0.0954,7.7338,0.0454,11.5972 C267.709,182.4866,267.2802,186.4998,267.2339,190.537z M18.1613,17.1263c-0.0759-0.0155-0.1584-0.0164-0.2535,0.0204 c-1.8228,0.7059-3.3121,2.3616-3.654,4.3145c-0.3364,1.9212,0.584,3.7841,2.3985,4.5684c1.6525,0.7144,3.7068,0.493,5.1807-0.5431 c1.6407-1.1533,2.3254-3.1945,1.5864-5.0878C22.6036,18.3088,20.4396,16.7349,18.1613,17.1263z M21.5872,24.4185 c-1.057,0.9247-2.6503,1.2472-3.9963,0.8863c-1.4501-0.3889-2.4737-1.619-2.4155-3.1445c0.0667-1.7468,1.3702-3.4047,2.9737-4.0376 c0.0098-0.0018,0.0178,0.0015,0.0278-0.0009c1.6541-0.3905,3.2742,0.6802,4.0597,2.0923 C23.0279,21.6369,22.8288,23.3323,21.5872,24.4185z M45.4504,17.1449c-0.1467,0.0366-0.2405,0.12-0.2958,0.221 c-0.0497-0.0035-0.0988-0.0089-0.1547,0.0038c-1.7809,0.4048-2.8025,2.1758-3.0037,3.8815 c-0.225,1.9086,0.6744,3.7537,2.3695,4.6893c1.7432,0.9622,3.9947,0.8676,5.6435-0.2524c1.9183-1.303,2.4276-3.7239,1.5242-5.8081 C50.5222,17.5467,47.832,16.55,45.4504,17.1449z M49.8138,24.5896c-1.2287,1.0453-3.0259,1.2939-4.5128,0.6948 c-1.4146-0.5701-2.3349-1.8873-2.342-3.4122c-0.0068-1.4697,0.7532-3.1851,2.3067-3.5382c0.1497-0.0341,0.2455-0.1166,0.3008-0.218 c0.0483,0.002,0.0956,0.0067,0.1497-0.0068c1.7058-0.4261,3.6857,0.1278,4.6451,1.6772 C51.2924,21.2902,51.2101,23.4017,49.8138,24.5896z M75.7051,17.3776c-0.0256-0.0211-0.0427-0.0459-0.0751-0.0637 c-1.5942-0.8748-3.5293-0.3577-4.8062,0.8403c-1.2996,1.2192-1.7743,3.1231-0.8892,4.723c0.7955,1.4379,2.4662,2.2961,4.0806,2.3299 c1.7346,0.0363,3.4072-1.0168,3.8976-2.7253C78.4795,20.5067,77.3458,18.4531,75.7051,17.3776z M77.0441,21.7324 c-0.1251,1.3174-1.2432,2.3063-2.527,2.4545c-1.2668,0.1463-2.6408-0.3905-3.4402-1.3912 c-0.8334-1.0433-0.7667-2.4418,0.0358-3.4815c0.8996-1.1655,2.6179-1.8861,3.9954-1.1439c0.0057,0.0038,0.0078,0.0093,0.0137,0.0131 C76.3079,18.9297,77.1807,20.2943,77.0441,21.7324z M100.3784,15.9917c-0.0042-0.0024-0.0057-0.006-0.0099-0.0083 c-0.0147-0.0079-0.0303-0.0101-0.0451-0.0176c-0.0251-0.01-0.0492-0.0256-0.0743-0.035c-0.0092-0.0035-0.0165-0.0011-0.0256-0.004 c-1.5441-0.717-3.3546,0.2036-4.4104,1.3765c-0.5912,0.6568-1.0153,1.4376-1.1096,2.3248 c-0.0939,0.8834,0.1608,1.7977,0.6329,2.5441c1.0063,1.591,2.8629,2.3455,4.6904,1.8771c1.6115-0.413,3.3782-1.8627,3.4588-3.6376 C103.5707,18.5368,102.0542,16.6882,100.3784,15.9917z M100.3332,22.8943c-1.3416,0.5743-2.8387,0.2981-3.8152-0.8016 c-0.9259-1.0427-1.1047-2.5046-0.3202-3.6723c0.7-1.0419,2.3704-2.2703,3.666-1.5735c0.0281,0.0151,0.0547,0.0154,0.0825,0.025 c0.0139,0.0065,0.022,0.0175,0.037,0.0231c1.2117,0.4575,2.2361,1.7225,2.4681,2.9922 C102.6968,21.2305,101.4714,22.407,100.3332,22.8943z M122.0842,15.2941c-0.1467,0.0366-0.2404,0.12-0.2958,0.2209 c-0.0497-0.0035-0.0988-0.0089-0.1547,0.0038c-1.7809,0.4048-2.8026,2.1758-3.0037,3.8815 c-0.225,1.9086,0.6744,3.7537,2.3695,4.6893c1.7432,0.9622,3.9947,0.8676,5.6435-0.2524c1.9183-1.303,2.4276-3.7239,1.5242-5.8081 C127.1561,15.6959,124.4659,14.6991,122.0842,15.2941z M126.4476,22.7387c-1.2287,1.0453-3.0259,1.294-4.5128,0.6948 c-1.4146-0.5701-2.3349-1.8872-2.342-3.4121c-0.0068-1.4697,0.7532-3.1851,2.3067-3.5382c0.1497-0.0341,0.2455-0.1166,0.3008-0.218 c0.0483,0.002,0.0956,0.0067,0.1497-0.0068c1.7058-0.4261,3.6857,0.1278,4.6451,1.6772 C127.9263,19.4393,127.8439,21.5509,126.4476,22.7387z" fill="#19120c"/></g></svg>